<svg width="32" height="32" viewBox="0 0 32 32" fill="none" xmlns="http://www.w3.org/2000/svg">
<g id="Button &#226;&#134;&#146; SVG">
<path id="Vector" d="M28 5.99996C28 7.84091 22.6275 9.33329 16 9.33329C9.37259 9.33329 4 7.84091 4 5.99996C4 4.15901 9.37259 2.66663 16 2.66663C22.6275 2.66663 28 4.15901 28 5.99996Z" stroke="#090B0E" stroke-width="2" stroke-linejoin="round"/>
<path id="Vector_2" d="M28 19.3334C28 21.1743 22.6275 22.6667 16 22.6667C9.37259 22.6667 4 21.1743 4 19.3334" stroke="#090B0E" stroke-width="2" stroke-linejoin="round"/>
<path id="Vector_3" d="M28 6V26C28 27.8409 22.6275 29.3333 16 29.3333C9.37259 29.3333 4 27.8409 4 26V6" stroke="#090B0E" stroke-width="2" stroke-linejoin="round"/>
<path id="Vector_4" d="M28 12.6666C28 14.5076 22.6275 16 16 16C9.37259 16 4 14.5076 4 12.6666" stroke="#090B0E" stroke-width="2" stroke-linejoin="round"/>
</g>
</svg>
