<svg width="48" height="48" viewBox="0 0 48 48" fill="none" xmlns="http://www.w3.org/2000/svg">
<rect width="48" height="48" rx="8" fill="#024EB5"/>
<path d="M17.25 15.75C16.0163 15.75 15 16.7663 15 18V23.25C15 28.2128 19.0373 32.25 24 32.25C28.9628 32.25 33 28.2128 33 23.25V18C33 16.7663 31.9837 15.75 30.75 15.75H17.25ZM17.25 17.25H30.75C31.1745 17.25 31.5 17.5755 31.5 18V23.25C31.5 27.4012 28.1512 30.75 24 30.75C19.8488 30.75 16.5 27.4012 16.5 23.25V18C16.5 17.5755 16.8255 17.25 17.25 17.25ZM19.992 20.5545C19.7048 20.5545 19.4145 20.6865 19.1955 20.9062C19.0911 21.0087 19.0082 21.1309 18.9517 21.2657C18.8951 21.4005 18.8659 21.5453 18.8659 21.6915C18.8659 21.8377 18.8951 21.9825 18.9517 22.1173C19.0082 22.2521 19.0911 22.3743 19.1955 22.4767L23.25 26.5312C23.4615 26.7423 23.7481 26.8609 24.0469 26.8609C24.3457 26.8609 24.6323 26.7423 24.8438 26.5312L28.8045 22.5938C29.0156 22.3823 29.1341 22.0957 29.1341 21.7969C29.1341 21.4981 29.0156 21.2115 28.8045 21C28.593 20.7889 28.3064 20.6704 28.0076 20.6704C27.7088 20.6704 27.4222 20.7889 27.2108 21L24.0472 24.1642L20.7892 20.9062C20.5695 20.6865 20.2793 20.5545 19.992 20.5545Z" fill="white"/>
</svg>
