<svg width="48" height="48" viewBox="0 0 48 48" fill="none" xmlns="http://www.w3.org/2000/svg">
<rect width="48" height="48" rx="8" fill="#024EB5"/>
<path d="M16 17.25C16 16.6533 16.2371 16.081 16.659 15.659C17.081 15.2371 17.6533 15 18.25 15H27.75C28.3467 15 28.919 15.2371 29.341 15.659C29.7629 16.081 30 16.6533 30 17.25V26H34V29.75C34 30.1768 33.9159 30.5994 33.7526 30.9937C33.5893 31.388 33.3499 31.7463 33.0481 32.0481C32.7463 32.3499 32.388 32.5893 31.9937 32.7526C31.5994 32.9159 31.1768 33 30.75 33H23.978C24.275 32.537 24.514 32.034 24.687 31.5H28.5V17.25C28.5 17.0511 28.421 16.8603 28.2803 16.7197C28.1397 16.579 27.9489 16.5 27.75 16.5H18.25C18.0511 16.5 17.8603 16.579 17.7197 16.7197C17.579 16.8603 17.5 17.0511 17.5 17.25V23.076C16.9848 23.1555 16.4811 23.2972 16 23.498V17.25ZM25.75 24.5H22.654C21.8363 23.8188 20.8632 23.3496 19.821 23.134C19.9469 23.0464 20.0966 22.9996 20.25 23H25.75C25.9489 23 26.1397 23.079 26.2803 23.2197C26.421 23.3603 26.5 23.5511 26.5 23.75C26.5 23.9489 26.421 24.1397 26.2803 24.2803C26.1397 24.421 25.9489 24.5 25.75 24.5ZM30 31.5H30.75C31.2141 31.5 31.6592 31.3156 31.9874 30.9874C32.3156 30.6592 32.5 30.2141 32.5 29.75V27.5H30V31.5ZM20.25 19C20.0511 19 19.8603 19.079 19.7197 19.2197C19.579 19.3603 19.5 19.5511 19.5 19.75C19.5 19.9489 19.579 20.1397 19.7197 20.2803C19.8603 20.421 20.0511 20.5 20.25 20.5H25.75C25.9489 20.5 26.1397 20.421 26.2803 20.2803C26.421 20.1397 26.5 19.9489 26.5 19.75C26.5 19.5511 26.421 19.3603 26.2803 19.2197C26.1397 19.079 25.9489 19 25.75 19H20.25ZM24 29.5C24 28.7777 23.8577 28.0625 23.5813 27.3952C23.3049 26.728 22.8998 26.1216 22.3891 25.6109C21.8784 25.1002 21.272 24.6951 20.6048 24.4187C19.9375 24.1423 19.2223 24 18.5 24C17.7777 24 17.0625 24.1423 16.3952 24.4187C15.728 24.6951 15.1216 25.1002 14.6109 25.6109C14.1002 26.1216 13.6951 26.728 13.4187 27.3952C13.1423 28.0625 13 28.7777 13 29.5C13 30.9587 13.5795 32.3576 14.6109 33.3891C15.6424 34.4205 17.0413 35 18.5 35C19.9587 35 21.3576 34.4205 22.3891 33.3891C23.4205 32.3576 24 30.9587 24 29.5ZM19 30L19.001 32.503C19.001 32.6356 18.9483 32.7628 18.8546 32.8566C18.7608 32.9503 18.6336 33.003 18.501 33.003C18.3684 33.003 18.2412 32.9503 18.1474 32.8566C18.0537 32.7628 18.001 32.6356 18.001 32.503V30H15.496C15.3634 30 15.2362 29.9473 15.1424 29.8536C15.0487 29.7598 14.996 29.6326 14.996 29.5C14.996 29.3674 15.0487 29.2402 15.1424 29.1464C15.2362 29.0527 15.3634 29 15.496 29H18V26.5C18 26.3674 18.0527 26.2402 18.1464 26.1464C18.2402 26.0527 18.3674 26 18.5 26C18.6326 26 18.7598 26.0527 18.8536 26.1464C18.9473 26.2402 19 26.3674 19 26.5V29H21.497C21.6296 29 21.7568 29.0527 21.8506 29.1464C21.9443 29.2402 21.997 29.3674 21.997 29.5C21.997 29.6326 21.9443 29.7598 21.8506 29.8536C21.7568 29.9473 21.6296 30 21.497 30H19Z" fill="white"/>
</svg>
