<svg width="48" height="48" viewBox="0 0 48 48" fill="none" xmlns="http://www.w3.org/2000/svg">
<rect width="48" height="48" rx="8" fill="#024EB5"/>
<path d="M19.2309 32.1315C15.9525 30.8392 14.7329 27.8737 15.5719 23.235C17.2434 26.427 22.5834 28.3125 19.2309 32.1315ZM19.2309 32.1315C19.6023 32.4904 19.8811 32.9341 20.0434 33.4245" stroke="white" stroke-width="0.8" stroke-linecap="round" stroke-linejoin="round"/>
<path d="M19.4765 34.5C19.8798 33.3253 20.5798 32.2747 21.5085 31.45M21.5085 31.45C29.6625 29.479 33.1763 23.9957 32.05 15C29.52 20.482 16.867 21.7445 21.5085 31.45ZM17 27.52C17.6662 27.9156 18.2121 28.485 18.5794 29.1672C18.9467 29.8493 19.1215 30.6186 19.085 31.3925" stroke="white" stroke-width="0.8" stroke-linecap="round" stroke-linejoin="round"/>
</svg>
