<svg width="21" height="20" viewBox="0 0 21 20" fill="none" xmlns="http://www.w3.org/2000/svg">
<g id="iconoir:qr-code">
<path id="Vector" d="M12.5996 10V12.5M10.0996 2.5V5M15.0996 10V12.5M10.0996 15H17.5996M15.0996 17.5H17.5996M5.09961 10H7.59961M5.09961 5.00917L5.10794 5M10.0996 10.0092L10.1079 10M2.59961 10.0092L2.60794 10M10.0996 7.50917L10.1079 7.5M10.0996 12.5092L10.1079 12.5M12.5996 17.5092L12.6079 17.5M10.0996 17.5092L10.1079 17.5M17.5996 10.0092L17.6079 10M17.5996 12.5092L17.6079 12.5M15.0996 5.00917L15.1079 5M5.09961 15.0092L5.10794 15M7.59961 3V7C7.59961 7.13261 7.54693 7.25979 7.45316 7.35355C7.3594 7.44732 7.23222 7.5 7.09961 7.5H3.09961C2.967 7.5 2.83982 7.44732 2.74606 7.35355C2.65229 7.25979 2.59961 7.13261 2.59961 7V3C2.59961 2.86739 2.65229 2.74021 2.74606 2.64645C2.83982 2.55268 2.967 2.5 3.09961 2.5H7.09961C7.23222 2.5 7.3594 2.55268 7.45316 2.64645C7.54693 2.74021 7.59961 2.86739 7.59961 3ZM17.5996 3V7C17.5996 7.13261 17.5469 7.25979 17.4532 7.35355C17.3594 7.44732 17.2322 7.5 17.0996 7.5H13.0996C12.967 7.5 12.8398 7.44732 12.7461 7.35355C12.6523 7.25979 12.5996 7.13261 12.5996 7V3C12.5996 2.86739 12.6523 2.74021 12.7461 2.64645C12.8398 2.55268 12.967 2.5 13.0996 2.5H17.0996C17.2322 2.5 17.3594 2.55268 17.4532 2.64645C17.5469 2.74021 17.5996 2.86739 17.5996 3ZM7.59961 13V17C7.59961 17.1326 7.54693 17.2598 7.45316 17.3536C7.3594 17.4473 7.23222 17.5 7.09961 17.5H3.09961C2.967 17.5 2.83982 17.4473 2.74606 17.3536C2.65229 17.2598 2.59961 17.1326 2.59961 17V13C2.59961 12.8674 2.65229 12.7402 2.74606 12.6464C2.83982 12.5527 2.967 12.5 3.09961 12.5H7.09961C7.23222 12.5 7.3594 12.5527 7.45316 12.6464C7.54693 12.7402 7.59961 12.8674 7.59961 13Z" stroke="white" stroke-width="1.25" stroke-linecap="round" stroke-linejoin="round"/>
</g>
</svg>
