<svg width="48" height="48" viewBox="0 0 48 48" fill="none" xmlns="http://www.w3.org/2000/svg">
<rect width="48" height="48" rx="8" fill="#008080"/>
<g clip-path="url(#clip0_1676_3006)">
<path d="M15.6058 33.9458C15.2187 33.8683 14.8632 33.6779 14.5842 33.3986C14.3051 33.1194 14.1149 32.7638 14.0375 32.3767C13.9738 32.0544 13.9904 31.7214 14.086 31.407C14.1815 31.0927 14.353 30.8068 14.5853 30.5745C14.8176 30.3421 15.1036 30.1706 15.4179 30.0751C15.7322 29.9796 16.0652 29.9629 16.3875 30.0267C16.7745 30.1042 17.1299 30.2944 17.409 30.5735C17.6881 30.8526 17.8783 31.208 17.9558 31.595C18.0196 31.9173 18.0029 32.2503 17.9074 32.5646C17.8119 32.879 17.6404 33.1649 17.4081 33.3972C17.1757 33.6295 16.8898 33.801 16.5755 33.8965C16.2611 33.9921 15.9281 34.0096 15.6058 33.9458ZM31.6125 17.9733C31.2255 17.8958 30.8701 17.7056 30.591 17.4265C30.3119 17.1474 30.1217 16.792 30.0442 16.405C29.9804 16.0827 29.9971 15.7497 30.0926 15.4354C30.1882 15.121 30.3597 14.8351 30.592 14.6028C30.8243 14.3705 31.1102 14.199 31.4245 14.1034C31.7389 14.0079 32.0719 13.9913 32.3942 14.055C32.7812 14.1325 33.1366 14.3228 33.4157 14.6018C33.6947 14.8809 33.885 15.2363 33.9625 15.6233C34.0262 15.9456 34.0096 16.2786 33.9141 16.593C33.8185 16.9073 33.647 17.1932 33.4147 17.4255C33.1824 17.6578 32.8965 17.8293 32.5821 17.9249C32.2678 18.0204 31.9348 18.0371 31.6125 17.9733ZM24.0175 19.0083C24.9733 19.0083 25.8667 19.2783 26.6258 19.7442L28.78 17.59C27.242 16.4466 25.344 15.8944 23.4326 16.0343C21.5212 16.1742 19.7238 16.9968 18.3686 18.352C17.0135 19.7072 16.1908 21.5045 16.051 23.4159C15.9111 25.3273 16.4632 27.2253 17.6067 28.7633L19.7617 26.6083C19.298 25.8518 19.0444 24.9853 19.027 24.0982C19.0095 23.2111 19.2288 22.3353 19.6624 21.5611C20.0959 20.7869 20.7279 20.1423 21.4934 19.6936C22.2589 19.2449 23.1302 19.0084 24.0175 19.0083ZM28.2733 21.3917C28.8591 22.3477 29.106 23.473 28.9742 24.5864C28.8424 25.6998 28.3396 26.7365 27.5468 27.5293C26.754 28.3221 25.7174 28.8249 24.6039 28.9567C23.4905 29.0885 22.3652 28.8416 21.4092 28.2558L19.2542 30.41C20.7922 31.5534 22.6902 32.1056 24.6016 31.9657C26.513 31.8258 28.3104 31.0032 29.6655 29.648C31.0207 28.2928 31.8433 26.4955 31.9832 24.5841C32.1231 22.6727 31.5709 20.7747 30.4275 19.2367L28.2733 21.3917Z" fill="white"/>
</g>
<defs>
<clipPath id="clip0_1676_3006">
<rect width="20" height="20" fill="white" transform="translate(14 14)"/>
</clipPath>
</defs>
</svg>
