<svg width="98" height="56" viewBox="0 0 98 56" fill="none" xmlns="http://www.w3.org/2000/svg">
<g id="Frame 1">
<g id="Group 10426">
<g id="t mbu">
<path d="M12.9434 24.706H8.17871V32.9598C8.17871 33.8101 8.3663 34.3979 8.74147 34.7231C9.14165 35.0232 9.66689 35.1733 10.3172 35.1733C10.8174 35.1733 11.3301 35.1232 11.8554 35.0232C12.3806 34.9231 12.8058 34.7856 13.131 34.6105L13.8813 38.0996C13.4561 38.2997 12.8183 38.4998 11.9679 38.6999C11.1175 38.9 10.2171 39 9.26671 39C7.09072 39 5.54002 38.5748 4.6146 37.7244C3.68917 36.849 3.22646 35.5484 3.22646 33.8226V24.706H0.450204V21.1044H3.22646V15.5894H8.17871V21.1044H12.9434V24.706ZM30.2126 39H25.2229V21.1044H29.1246L29.7249 23.3929C30.5253 22.5675 31.4007 21.9172 32.3511 21.442C33.3015 20.9668 34.377 20.7292 35.5776 20.7292C38.1287 20.7292 39.867 21.6546 40.7924 23.5055C41.5928 22.6301 42.5057 21.9548 43.5312 21.4795C44.5567 20.9793 45.6572 20.7292 46.8327 20.7292C48.7336 20.7292 50.1842 21.2419 51.1847 22.2674C52.2101 23.2929 52.7229 24.781 52.7229 26.7319V39H47.7331V27.2947C47.7331 26.4443 47.5205 25.7815 47.0953 25.3063C46.6951 24.8061 46.0949 24.5559 45.2945 24.5559C44.6192 24.5559 43.9314 24.7185 43.2311 25.0437C42.5557 25.3688 41.968 25.8315 41.4678 26.4318V39H36.478V27.2947C36.478 26.4443 36.2654 25.7815 35.8402 25.3063C35.44 24.8061 34.8397 24.5559 34.0394 24.5559C33.3641 24.5559 32.6763 24.7435 31.9759 25.1187C31.3006 25.4689 30.7129 25.9566 30.2126 26.5819V39ZM74.9898 30.1085C74.9898 31.5341 74.7772 32.8222 74.352 33.9727C73.9268 35.1232 73.3391 36.1112 72.5887 36.9366C71.8384 37.7369 70.9505 38.3497 69.925 38.7749C68.8995 39.2001 67.7865 39.4127 66.586 39.4127C65.4105 39.4127 64.41 39.2376 63.5846 38.8874C62.7593 38.5123 62.0339 37.9995 61.4086 37.3493H61.2586L60.9209 39H57.3193V12.2128H62.2715V22.5675C62.8968 21.9923 63.6221 21.5421 64.4475 21.2169C65.2979 20.8918 66.1983 20.7292 67.1487 20.7292C69.5999 20.7292 71.5132 21.5546 72.8889 23.2053C74.2895 24.8561 74.9898 27.1571 74.9898 30.1085ZM69.85 30.221C69.85 28.3702 69.4873 26.9695 68.762 26.0191C68.0367 25.0437 67.0112 24.5559 65.6856 24.5559C64.9853 24.5559 64.335 24.731 63.7347 25.0812C63.1344 25.4063 62.6592 25.7815 62.3091 26.2067V34.4229C62.6342 34.7981 63.0469 35.1107 63.5471 35.3608C64.0724 35.611 64.6226 35.736 65.1979 35.736C65.7981 35.736 66.3734 35.6235 66.9236 35.3984C67.4989 35.1733 67.9991 34.8356 68.4243 34.3854C68.8745 33.9352 69.2247 33.3724 69.4748 32.6971C69.7249 31.9968 69.85 31.1714 69.85 30.221ZM90.1227 21.1044H95.1124V39H91.3982L90.873 36.9741H90.7229C90.4478 37.2492 90.1227 37.5368 89.7475 37.837C89.3973 38.1121 88.9721 38.3747 88.4719 38.6248C87.9967 38.8499 87.4464 39.0375 86.8212 39.1876C86.2209 39.3377 85.5456 39.4127 84.7952 39.4127C82.8694 39.4127 81.3437 38.8749 80.2182 37.7995C79.1177 36.724 78.5674 35.1357 78.5674 33.0348V21.1044H83.5572V32.6221C83.5572 33.6976 83.8073 34.4729 84.3075 34.9482C84.8328 35.4234 85.4956 35.661 86.2959 35.661C87.1963 35.661 87.9592 35.4734 88.5845 35.0982C89.2347 34.7231 89.7475 34.2854 90.1227 33.7851V21.1044Z" fill="#333CC1"/>
</g>
<g id="Group 11142">
<rect id="Rectangle 17194" x="16.0586" y="4.68359" width="5.25932" height="34.4786" rx="1.07509" fill="#FFBA48"/>
<rect id="Rectangle 17195" x="16.7852" y="5.42822" width="3.8057" height="8.07572" rx="1.07509" fill="#333CC1"/>
<g id="Group 10423">
<path id="Vector" d="M17.6599 3.39884C17.4769 3.48517 17.2659 3.39469 17.1665 3.17594L15.3999 -0.704001C15.2897 -0.946089 15.3577 -1.25382 15.5516 -1.39138C15.7465 -1.52786 15.9921 -1.44409 16.1023 -1.202L17.8689 2.67794C17.9791 2.92003 17.9111 3.22776 17.7171 3.36532C17.6986 3.37829 17.6796 3.38957 17.6599 3.39884L17.6599 3.39884Z" fill="#FFBA48"/>
<path id="Vector_2" d="M20.6523 2.58922C20.5944 2.61651 20.531 2.62761 20.4653 2.6187C20.2434 2.58785 20.0835 2.33923 20.108 2.06242L20.2957 -0.0624615C20.3204 -0.339408 20.5199 -0.53874 20.7413 -0.508434C20.9632 -0.477585 21.123 -0.228972 21.0986 0.0478473L20.9109 2.17272C20.8941 2.36722 20.7901 2.52421 20.6523 2.58922L20.6523 2.58922Z" fill="#FFBA48"/>
<path id="Vector_3" d="M24.2303 11.7033C24.1557 11.7384 24.0718 11.7466 23.9891 11.7203L22.6054 11.2839C22.3889 11.216 22.2578 10.9415 22.3129 10.6714C22.3675 10.4018 22.5874 10.2382 22.8036 10.3062L24.1873 10.7426C24.4038 10.8106 24.5349 11.085 24.4798 11.3552C24.4456 11.5207 24.3495 11.647 24.2303 11.7033L24.2303 11.7033Z" fill="#FFBA48"/>
<path id="Vector_4" d="M15.4368 11.1886L12.6029 12.5256C12.3941 12.6241 12.1584 12.4827 12.0795 12.222C12.0005 11.9613 12.1026 11.6605 12.3112 11.5621L15.1451 10.2251C15.3539 10.1266 15.5896 10.268 15.6685 10.5287C15.7475 10.7894 15.6454 11.0902 15.4368 11.1886Z" fill="#FFBA48"/>
<path id="Vector_5" d="M14.9155 6.62128C14.8561 6.64934 14.7901 6.6601 14.723 6.64956L11.6542 6.17077C11.4331 6.13647 11.2759 5.88432 11.3035 5.60791C11.3308 5.33129 11.533 5.13569 11.7545 5.17019L14.8232 5.64898C15.0443 5.68328 15.2015 5.93543 15.1739 6.21184C15.1542 6.40387 15.0512 6.55728 14.9155 6.62127L14.9155 6.62128Z" fill="#FFBA48"/>
<path id="Vector_6" d="M22.3527 6.7917C22.167 6.8793 21.9532 6.78475 21.8557 6.56124C21.749 6.3167 21.8212 6.01048 22.0167 5.87714L25.0156 3.83542C25.2117 3.70104 25.4568 3.79234 25.5636 4.03641C25.6703 4.28095 25.5981 4.58718 25.4026 4.72051L22.4037 6.76223C22.387 6.77397 22.3702 6.78344 22.3527 6.7917L22.3527 6.7917Z" fill="#FFBA48"/>
</g>
</g>
</g>
</g>
</svg>
