<svg width="18" height="20" viewBox="0 0 18 20" fill="none" xmlns="http://www.w3.org/2000/svg">
<path d="M3.382 1.96801C4.9757 0.691111 6.9578 -0.00318899 9 1.10121e-05C11.125 1.10121e-05 13.078 0.736011 14.618 1.96801L16.071 0.51501L17.485 1.92901L16.032 3.38201C17.3089 4.97581 18.0033 6.95781 18 9.00001V10H0V9.00001C0 6.87501 0.736 4.92201 1.968 3.38201L0.514999 1.93001L1.929 0.516012L3.382 1.96801ZM0 12H18V19C18 19.2652 17.8946 19.5196 17.7071 19.7071C17.5196 19.8947 17.2652 20 17 20H1C0.7348 20 0.4804 19.8947 0.2929 19.7071C0.1054 19.5196 0 19.2652 0 19V12ZM6 7.00001C6.2652 7.00001 6.5196 6.89471 6.7071 6.70711C6.8946 6.51961 7 6.26521 7 6.00001C7 5.73481 6.8946 5.48041 6.7071 5.29291C6.5196 5.10541 6.2652 5.00001 6 5.00001C5.7348 5.00001 5.4804 5.10541 5.2929 5.29291C5.1054 5.48041 5 5.73481 5 6.00001C5 6.26521 5.1054 6.51961 5.2929 6.70711C5.4804 6.89471 5.7348 7.00001 6 7.00001ZM12 7.00001C12.2652 7.00001 12.5196 6.89471 12.7071 6.70711C12.8946 6.51961 13 6.26521 13 6.00001C13 5.73481 12.8946 5.48041 12.7071 5.29291C12.5196 5.10541 12.2652 5.00001 12 5.00001C11.7348 5.00001 11.4804 5.10541 11.2929 5.29291C11.1054 5.48041 11 5.73481 11 6.00001C11 6.26521 11.1054 6.51961 11.2929 6.70711C11.4804 6.89471 11.7348 7.00001 12 7.00001Z" fill="white"/>
</svg>
