<svg width="137" height="60" viewBox="0 0 137 60" fill="none" xmlns="http://www.w3.org/2000/svg">
<rect width="137" height="60" rx="8" fill="#1A1C1F"/>
<path d="M27.382 21.968C28.9757 20.6911 30.9578 19.9968 33 20C35.125 20 37.078 20.736 38.618 21.968L40.071 20.515L41.485 21.929L40.032 23.382C41.3089 24.9758 42.0033 26.9578 42 29V30H24V29C24 26.875 24.736 24.922 25.968 23.382L24.515 21.93L25.929 20.516L27.382 21.968ZM24 32H42V39C42 39.2652 41.8946 39.5196 41.7071 39.7071C41.5196 39.8947 41.2652 40 41 40H25C24.7348 40 24.4804 39.8947 24.2929 39.7071C24.1054 39.5196 24 39.2652 24 39V32ZM30 27C30.2652 27 30.5196 26.8947 30.7071 26.7071C30.8946 26.5196 31 26.2652 31 26C31 25.7348 30.8946 25.4804 30.7071 25.2929C30.5196 25.1054 30.2652 25 30 25C29.7348 25 29.4804 25.1054 29.2929 25.2929C29.1054 25.4804 29 25.7348 29 26C29 26.2652 29.1054 26.5196 29.2929 26.7071C29.4804 26.8947 29.7348 27 30 27ZM36 27C36.2652 27 36.5196 26.8947 36.7071 26.7071C36.8946 26.5196 37 26.2652 37 26C37 25.7348 36.8946 25.4804 36.7071 25.2929C36.5196 25.1054 36.2652 25 36 25C35.7348 25 35.4804 25.1054 35.2929 25.2929C35.1054 25.4804 35 25.7348 35 26C35 26.2652 35.1054 26.5196 35.2929 26.7071C35.4804 26.8947 35.7348 27 36 27Z" fill="white"/>
<path d="M63.936 36L62.694 32.796H57.096L55.854 36H54.162L59.148 23.4H60.642L65.646 36H63.936ZM57.654 31.338H62.136L59.904 25.56L57.654 31.338ZM67.0545 36V26.928H68.5845V28.638C68.9085 28.074 69.3405 27.624 69.8805 27.288C70.4205 26.952 71.0265 26.784 71.6985 26.784C72.6465 26.784 73.4205 27.078 74.0205 27.666C74.6325 28.254 74.9385 29.028 74.9385 29.988V36H73.4085V30.276C73.4085 29.652 73.2225 29.148 72.8505 28.764C72.4785 28.368 71.9805 28.17 71.3565 28.17C70.5045 28.17 69.8265 28.518 69.3225 29.214C68.8305 29.898 68.5845 30.834 68.5845 32.022V36H67.0545ZM81.2776 36.144C79.9096 36.144 78.8356 35.712 78.0556 34.848C77.2876 33.972 76.9036 32.844 76.9036 31.464C76.9036 30.084 77.2876 28.962 78.0556 28.098C78.8236 27.222 79.8916 26.784 81.2596 26.784C81.8596 26.784 82.4296 26.916 82.9696 27.18C83.5216 27.444 83.9416 27.792 84.2296 28.224V23.256H85.7596V36H84.2296V34.686C84.0256 35.106 83.6476 35.454 83.0956 35.73C82.5436 36.006 81.9376 36.144 81.2776 36.144ZM79.2796 33.876C79.8196 34.476 80.5336 34.776 81.4216 34.776C82.3096 34.776 83.0236 34.476 83.5636 33.876C84.1036 33.264 84.3736 32.46 84.3736 31.464C84.3736 30.468 84.1036 29.67 83.5636 29.07C83.0236 28.458 82.3096 28.152 81.4216 28.152C80.5336 28.152 79.8196 28.458 79.2796 29.07C78.7396 29.67 78.4696 30.468 78.4696 31.464C78.4696 32.46 78.7396 33.264 79.2796 33.876ZM95.6341 34.83C94.7701 35.706 93.6661 36.144 92.3221 36.144C90.9781 36.144 89.8741 35.706 89.0101 34.83C88.1461 33.942 87.7141 32.82 87.7141 31.464C87.7141 30.108 88.1461 28.992 89.0101 28.116C89.8741 27.228 90.9781 26.784 92.3221 26.784C93.6661 26.784 94.7701 27.228 95.6341 28.116C96.5101 28.992 96.9481 30.108 96.9481 31.464C96.9481 32.82 96.5101 33.942 95.6341 34.83ZM90.1261 33.858C90.6901 34.47 91.4221 34.776 92.3221 34.776C93.2221 34.776 93.9541 34.47 94.5181 33.858C95.0821 33.234 95.3641 32.436 95.3641 31.464C95.3641 30.492 95.0821 29.7 94.5181 29.088C93.9541 28.464 93.2221 28.152 92.3221 28.152C91.4221 28.152 90.6901 28.464 90.1261 29.088C89.5621 29.7 89.2801 30.492 89.2801 31.464C89.2801 32.436 89.5621 33.234 90.1261 33.858ZM98.7981 23.256H100.562V25.2H98.7981V23.256ZM98.9061 36V26.928H100.436V36H98.9061ZM106.766 36.144C105.398 36.144 104.324 35.712 103.544 34.848C102.776 33.972 102.392 32.844 102.392 31.464C102.392 30.084 102.776 28.962 103.544 28.098C104.312 27.222 105.38 26.784 106.748 26.784C107.348 26.784 107.918 26.916 108.458 27.18C109.01 27.444 109.43 27.792 109.718 28.224V23.256H111.248V36H109.718V34.686C109.514 35.106 109.136 35.454 108.584 35.73C108.032 36.006 107.426 36.144 106.766 36.144ZM104.768 33.876C105.308 34.476 106.022 34.776 106.91 34.776C107.798 34.776 108.512 34.476 109.052 33.876C109.592 33.264 109.862 32.46 109.862 31.464C109.862 30.468 109.592 29.67 109.052 29.07C108.512 28.458 107.798 28.152 106.91 28.152C106.022 28.152 105.308 28.458 104.768 29.07C104.228 29.67 103.958 30.468 103.958 31.464C103.958 32.46 104.228 33.264 104.768 33.876Z" fill="white"/>
</svg>
