<svg width="14" height="14" viewBox="0 0 14 14" fill="none" xmlns="http://www.w3.org/2000/svg">
<path fill-rule="evenodd" clip-rule="evenodd" d="M12 13.5H2.54545C1.87036 13.5 1.22291 13.2382 0.745546 12.7721C0.268181 12.3061 0 11.674 0 11.0149V1.74406C0 0.986457 0.768 0.505767 1.44364 0.734397C1.54036 0.767058 1.63491 0.81463 1.72509 0.877822L1.85236 0.966576C2.16193 1.18102 2.53227 1.29592 2.91185 1.29529C3.29143 1.29465 3.66137 1.17851 3.97018 0.963026C4.40366 0.661842 4.9225 0.5 5.45455 0.5C5.9866 0.5 6.50543 0.661842 6.93891 0.963026C7.24772 1.17851 7.61766 1.29465 7.99724 1.29529C8.37682 1.29592 8.74716 1.18102 9.05673 0.966576L9.184 0.877822C9.90618 0.373702 10.9091 0.877822 10.9091 1.74406V7.10974H13.4545C13.5992 7.10974 13.7379 7.16585 13.8402 7.26572C13.9425 7.36558 14 7.50103 14 7.64226V11.5474C14 12.0653 13.7893 12.5619 13.4142 12.9281C13.0391 13.2943 12.5304 13.5 12 13.5ZM11.0909 8.17479V11.5474C11.0909 11.7828 11.1867 12.0086 11.3572 12.175C11.5277 12.3414 11.7589 12.435 12 12.435C12.2411 12.435 12.4723 12.3414 12.6428 12.175C12.8133 12.0086 12.9091 11.7828 12.9091 11.5474V8.17479H11.0909ZM8 5.15716C8 5.01593 7.94253 4.88048 7.84024 4.78062C7.73795 4.68075 7.59921 4.62464 7.45455 4.62464H3.09091C2.94625 4.62464 2.80751 4.68075 2.70521 4.78062C2.60292 4.88048 2.54545 5.01593 2.54545 5.15716C2.54545 5.2984 2.60292 5.43385 2.70521 5.53371C2.80751 5.63358 2.94625 5.68969 3.09091 5.68969H7.45455C7.59921 5.68969 7.73795 5.63358 7.84024 5.53371C7.94253 5.43385 8 5.2984 8 5.15716ZM7.27273 7.28725C7.27273 7.14602 7.21526 7.01057 7.11297 6.9107C7.01067 6.81083 6.87194 6.75473 6.72727 6.75473H3.09091C2.94625 6.75473 2.80751 6.81083 2.70521 6.9107C2.60292 7.01057 2.54545 7.14602 2.54545 7.28725C2.54545 7.42848 2.60292 7.56393 2.70521 7.6638C2.80751 7.76367 2.94625 7.81977 3.09091 7.81977H6.72727C6.87194 7.81977 7.01067 7.76367 7.11297 7.6638C7.21526 7.56393 7.27273 7.42848 7.27273 7.28725ZM7.45455 8.88481C7.59921 8.88481 7.73795 8.94092 7.84024 9.04079C7.94253 9.14065 8 9.2761 8 9.41734C8 9.55857 7.94253 9.69402 7.84024 9.79389C7.73795 9.89375 7.59921 9.94986 7.45455 9.94986H3.09091C2.94625 9.94986 2.80751 9.89375 2.70521 9.79389C2.60292 9.69402 2.54545 9.55857 2.54545 9.41734C2.54545 9.2761 2.60292 9.14065 2.70521 9.04079C2.80751 8.94092 2.94625 8.88481 3.09091 8.88481H7.45455Z" fill="white"/>
</svg>
