<svg width="131" height="60" viewBox="0 0 131 60" fill="none" xmlns="http://www.w3.org/2000/svg">
<rect width="130.065" height="60" rx="8" fill="#1A1C1F"/>
<path d="M47.6734 25.2831C46.7974 25.2831 45.4414 24.2871 44.0135 24.3231C42.1295 24.3471 40.4014 25.4151 39.4294 27.1071C37.4734 30.5031 38.9254 35.5191 40.8334 38.2791C41.7694 39.6231 42.8734 41.1351 44.3374 41.0871C45.7414 41.0271 46.2694 40.1751 47.9734 40.1751C49.6654 40.1751 50.1454 41.0871 51.6334 41.0511C53.1454 41.0271 54.1054 39.6831 55.0294 38.3271C56.0974 36.7671 56.5414 35.2551 56.5655 35.1711C56.5295 35.1591 53.6255 34.0431 53.5895 30.6831C53.5655 27.8751 55.8815 26.5311 55.9894 26.4711C54.6695 24.5391 52.6414 24.3231 51.9334 24.2751C50.0854 24.1311 48.5374 25.2831 47.6734 25.2831ZM50.7934 22.4511C51.5734 21.5151 52.0894 20.2071 51.9454 18.9111C50.8294 18.9591 49.4854 19.6551 48.6814 20.5911C47.9614 21.4191 47.3374 22.7511 47.5054 24.0231C48.7414 24.1191 50.0135 23.3871 50.7934 22.4511Z" fill="white"/>
<path d="M69.6994 23.256H71.4634V25.2H69.6994V23.256ZM69.8074 36V26.928H71.3374V36H69.8074ZM81.2132 34.83C80.3492 35.706 79.2452 36.144 77.9012 36.144C76.5572 36.144 75.4532 35.706 74.5892 34.83C73.7252 33.942 73.2932 32.82 73.2932 31.464C73.2932 30.108 73.7252 28.992 74.5892 28.116C75.4532 27.228 76.5572 26.784 77.9012 26.784C79.2452 26.784 80.3492 27.228 81.2132 28.116C82.0892 28.992 82.5272 30.108 82.5272 31.464C82.5272 32.82 82.0892 33.942 81.2132 34.83ZM75.7052 33.858C76.2692 34.47 77.0012 34.776 77.9012 34.776C78.8012 34.776 79.5332 34.47 80.0972 33.858C80.6612 33.234 80.9432 32.436 80.9432 31.464C80.9432 30.492 80.6612 29.7 80.0972 29.088C79.5332 28.464 78.8012 28.152 77.9012 28.152C77.0012 28.152 76.2692 28.464 75.7052 29.088C75.1412 29.7 74.8592 30.492 74.8592 31.464C74.8592 32.436 75.1412 33.234 75.7052 33.858ZM87.4393 36.144C86.4313 36.144 85.6033 35.886 84.9553 35.37C84.3193 34.854 83.8873 34.23 83.6593 33.498L84.9733 32.922C85.3813 34.206 86.2033 34.848 87.4393 34.848C87.9793 34.848 88.4173 34.716 88.7533 34.452C89.1013 34.176 89.2753 33.846 89.2753 33.462C89.2753 33.042 89.0953 32.712 88.7353 32.472C88.3753 32.232 87.9373 32.052 87.4213 31.932C86.9173 31.812 86.4073 31.68 85.8913 31.536C85.3873 31.38 84.9553 31.11 84.5953 30.726C84.2353 30.342 84.0553 29.832 84.0553 29.196C84.0553 28.476 84.3433 27.894 84.9193 27.45C85.4953 27.006 86.2693 26.784 87.2413 26.784C88.0453 26.784 88.7593 26.994 89.3833 27.414C90.0073 27.822 90.4153 28.356 90.6073 29.016L89.3293 29.574C89.2093 29.118 88.9453 28.752 88.5373 28.476C88.1413 28.188 87.6973 28.044 87.2053 28.044C86.6893 28.044 86.2813 28.146 85.9813 28.35C85.6813 28.542 85.5313 28.818 85.5313 29.178C85.5313 29.478 85.6573 29.724 85.9093 29.916C86.1733 30.108 86.4973 30.246 86.8813 30.33C87.2773 30.402 87.7033 30.51 88.1593 30.654C88.6153 30.786 89.0353 30.936 89.4193 31.104C89.8033 31.272 90.1213 31.56 90.3733 31.968C90.6373 32.364 90.7693 32.856 90.7693 33.444C90.7693 34.236 90.4633 34.884 89.8513 35.388C89.2393 35.892 88.4353 36.144 87.4393 36.144Z" fill="white"/>
</svg>
