<svg width="28" height="28" viewBox="0 0 28 28" fill="none" xmlns="http://www.w3.org/2000/svg">
<g clip-path="url(#clip0_5479_1320)">
<path d="M10.5 8.16681C7.00001 8.16681 5.83334 11.6668 5.83334 14.5835C5.83334 18.0835 8.16668 23.3335 10.5 23.3335C11.7693 23.2798 12.4588 22.7501 14 22.7501C15.5307 22.7501 15.75 23.3335 17.5 23.3335C19.25 23.3335 22.1667 19.8335 22.1667 17.5001C22.134 17.4885 19.2827 17.03 19.25 14.0001C19.2278 11.4685 22.0687 10.5538 22.1667 10.5001C20.9732 8.75948 18.7238 8.20998 18.0833 8.16681C16.4115 8.03731 14.7817 9.33348 14 9.33348C13.2067 9.33348 11.7833 8.16681 10.5 8.16681Z" fill="#fff" stroke="#fff" stroke-linecap="round" stroke-linejoin="round"/>
<path d="M14 4.66683C14.6188 4.66683 15.2123 4.421 15.6499 3.98341C16.0875 3.54583 16.3333 2.95233 16.3333 2.3335C15.7145 2.3335 15.121 2.57933 14.6834 3.01691C14.2458 3.4545 14 4.04799 14 4.66683Z" fill="#fff"/>
<path d="M14 4.66683C14.6188 4.66683 15.2123 4.421 15.6499 3.98341C16.0875 3.54583 16.3333 2.95233 16.3333 2.3335C15.7145 2.3335 15.121 2.57933 14.6834 3.01691C14.2458 3.4545 14 4.04799 14 4.66683" stroke="#fff" stroke-linecap="round" stroke-linejoin="round"/>
</g>
<defs>
<clipPath id="clip0_5479_1320">
<rect width="28" height="28" fill="white"/>
</clipPath>
</defs>
</svg>
