<svg width="28" height="28" viewBox="0 0 28 28" fill="none" xmlns="http://www.w3.org/2000/svg">
<g clip-path="url(#clip0_5479_1310)">
<path d="M4.66667 4.32813V23.6715C4.66672 23.8148 4.70448 23.9556 4.77618 24.0797C4.84788 24.2038 4.95097 24.3069 5.07512 24.3785C5.19926 24.4502 5.34007 24.4879 5.4834 24.4879C5.62674 24.4879 5.76754 24.4501 5.89167 24.3785L22.9507 14.5551C23.0483 14.4988 23.1294 14.4178 23.1858 14.3202C23.2422 14.2226 23.2719 14.1119 23.2719 13.9992C23.2719 13.8865 23.2422 13.7758 23.1858 13.6782C23.1294 13.5806 23.0483 13.4996 22.9507 13.4433L5.89167 3.62113C5.76746 3.54942 5.62654 3.51168 5.48311 3.51172C5.33968 3.51176 5.19879 3.54957 5.07461 3.62136C4.95043 3.69314 4.84735 3.79637 4.77574 3.92065C4.70413 4.04492 4.66651 4.18587 4.66667 4.3293V4.32813Z" fill="#fff" stroke="white" stroke-linecap="round" stroke-linejoin="round"/>
<path d="M17.5 10.5L5.25 23.9167" stroke="white" stroke-linecap="round" stroke-linejoin="round"/>
<path d="M5.25 4.0835L17.5 17.5002" stroke="white" stroke-linecap="round" stroke-linejoin="round"/>
</g>
<defs>
<clipPath id="clip0_5479_1310">
<rect width="28" height="28" fill="white"/>
</clipPath>
</defs>
</svg>
