<svg width="80" height="52" viewBox="0 0 80 52" fill="none" xmlns="http://www.w3.org/2000/svg">
<path d="M10.566 23.8314H6.6765V30.5692C6.6765 31.2634 6.82963 31.7432 7.13589 32.0086C7.46257 32.2536 7.89134 32.3761 8.42219 32.3761C8.83054 32.3761 9.2491 32.3353 9.67786 32.2536C10.1066 32.172 10.4537 32.0597 10.7192 31.9167L11.3317 34.765C10.9846 34.9283 10.4639 35.0917 9.76974 35.255C9.07555 35.4183 8.34052 35.5 7.56466 35.5C5.78834 35.5 4.52246 35.1529 3.76702 34.4587C3.01157 33.7441 2.63385 32.6824 2.63385 31.2736V23.8314H0.367514V20.8913H2.63385V16.3893H6.6765V20.8913H10.566V23.8314ZM24.6634 35.5H20.5901V20.8913H23.7752L24.2652 22.7595C24.9186 22.0857 25.6332 21.5549 26.4091 21.167C27.1849 20.779 28.0629 20.5851 29.0429 20.5851C31.1255 20.5851 32.5445 21.3405 33.3 22.8514C33.9533 22.1368 34.6986 21.5855 35.5357 21.1976C36.3728 20.7892 37.2711 20.5851 38.2308 20.5851C39.7825 20.5851 40.9667 21.0036 41.7834 21.8407C42.6205 22.6779 43.0391 23.8927 43.0391 25.4852V35.5H38.9658V25.9446C38.9658 25.2504 38.7922 24.7094 38.4451 24.3215C38.1185 23.9131 37.6285 23.7089 36.9751 23.7089C36.4238 23.7089 35.8623 23.8416 35.2907 24.1071C34.7394 24.3725 34.2596 24.7502 33.8512 25.2402V35.5H29.7779V25.9446C29.7779 25.2504 29.6044 24.7094 29.2573 24.3215C28.9306 23.9131 28.4406 23.7089 27.7872 23.7089C27.236 23.7089 26.6745 23.8621 26.1028 24.1683C25.5515 24.4542 25.0717 24.8523 24.6634 25.3627V35.5ZM61.2162 28.2416C61.2162 29.4054 61.0426 30.4569 60.6955 31.3961C60.3484 32.3353 59.8686 33.1418 59.2561 33.8156C58.6436 34.4689 57.9188 34.9691 57.0816 35.3162C56.2445 35.6633 55.3359 35.8369 54.3559 35.8369C53.3963 35.8369 52.5796 35.694 51.9058 35.4081C51.232 35.1019 50.6399 34.6833 50.1295 34.1524H50.007L49.7314 35.5H46.7913V13.6329H50.8339V22.0857C51.3443 21.6161 51.9364 21.2486 52.6102 20.9832C53.3044 20.7178 54.0394 20.5851 54.8153 20.5851C56.8162 20.5851 58.3781 21.2588 59.5011 22.6064C60.6445 23.9539 61.2162 25.8323 61.2162 28.2416ZM57.0204 28.3335C57.0204 26.8226 56.7243 25.6792 56.1322 24.9034C55.5401 24.1071 54.703 23.7089 53.6209 23.7089C53.0492 23.7089 52.5183 23.8519 52.0283 24.1377C51.5383 24.4031 51.1504 24.7094 50.8645 25.0565V31.7636C51.13 32.0699 51.4668 32.3251 51.8752 32.5293C52.304 32.7334 52.7531 32.8355 53.2227 32.8355C53.7128 32.8355 54.1824 32.7436 54.6315 32.5599C55.1011 32.3761 55.5095 32.1005 55.8566 31.733C56.2241 31.3655 56.5099 30.9061 56.7141 30.3548C56.9183 29.7831 57.0204 29.1093 57.0204 28.3335ZM73.5695 20.8913H77.6428V35.5H74.6108L74.182 33.8462H74.0595C73.8349 34.0708 73.5695 34.3056 73.2632 34.5506C72.9774 34.7752 72.6303 34.9896 72.222 35.1937C71.834 35.3775 71.3848 35.5306 70.8744 35.6531C70.3844 35.7756 69.8331 35.8369 69.2206 35.8369C67.6485 35.8369 66.403 35.3979 65.4842 34.52C64.5858 33.642 64.1367 32.3455 64.1367 30.6304V20.8913H68.2099V30.2936C68.2099 31.1715 68.4141 31.8044 68.8225 32.1924C69.2512 32.5803 69.7923 32.7743 70.4456 32.7743C71.1807 32.7743 71.8034 32.6211 72.3138 32.3149C72.8447 32.0086 73.2632 31.6513 73.5695 31.243V20.8913Z" fill="#008080"/>
<rect x="13.1074" y="6.77246" width="4.29333" height="28.1458" rx="0.877627" fill="#FFBA48"/>
<rect x="13.7012" y="7.38037" width="3.10669" height="6.59243" rx="0.877627" fill="#008080"/>
<path d="M14.4149 5.72342C14.2655 5.7939 14.0932 5.72004 14.012 5.54146L12.5699 2.37417C12.48 2.17654 12.5355 1.92533 12.6938 1.81304C12.8529 1.70163 13.0534 1.77001 13.1433 1.96764L14.5854 5.13494C14.6754 5.33256 14.6199 5.58377 14.4616 5.69606C14.4465 5.70665 14.4309 5.71586 14.4149 5.72342L14.4149 5.72342Z" fill="#FFBA48"/>
<path d="M16.859 5.06285C16.8118 5.08514 16.76 5.09419 16.7064 5.08692C16.5253 5.06174 16.3948 4.85879 16.4147 4.63281L16.5679 2.89822C16.5881 2.67214 16.751 2.50942 16.9317 2.53416C17.1128 2.55934 17.2433 2.76229 17.2234 2.98827L17.0702 4.72286C17.0565 4.88163 16.9715 5.00979 16.859 5.06286L16.859 5.06285Z" fill="#FFBA48"/>
<path d="M19.7801 12.5026C19.7193 12.5313 19.6507 12.538 19.5832 12.5166L18.4537 12.1603C18.277 12.1049 18.17 11.8808 18.2149 11.6603C18.2595 11.4402 18.439 11.3066 18.6155 11.3622L19.7451 11.7184C19.9218 11.7739 20.0288 11.998 19.9838 12.2185C19.956 12.3536 19.8775 12.4567 19.7801 12.5026L19.7801 12.5026Z" fill="#FFBA48"/>
<path d="M12.6 12.0829L10.2866 13.1743C10.1161 13.2547 9.92374 13.1393 9.85931 12.9265C9.79487 12.7136 9.8782 12.4681 10.0485 12.3878L12.3619 11.2964C12.5323 11.216 12.7247 11.3314 12.7892 11.5442C12.8536 11.757 12.7703 12.0025 12.6 12.0829Z" fill="#FFBA48"/>
<path d="M12.1754 8.35423C12.1268 8.37713 12.073 8.38592 12.0182 8.37731L9.51307 7.98647C9.3326 7.95847 9.20425 7.75263 9.22681 7.52699C9.24908 7.30118 9.41415 7.14151 9.59491 7.16967L12.1 7.56052C12.2805 7.58852 12.4088 7.79435 12.3863 8.02C12.3702 8.17675 12.2861 8.30199 12.1754 8.35423L12.1754 8.35423Z" fill="#FFBA48"/>
<path d="M18.2453 8.49319C18.0937 8.56471 17.9192 8.48752 17.8396 8.30506C17.7525 8.10544 17.8114 7.85546 17.971 7.74662L20.4191 6.0799C20.5792 5.9702 20.7793 6.04474 20.8665 6.24398C20.9535 6.4436 20.8946 6.69358 20.735 6.80243L18.287 8.46914C18.2733 8.47872 18.2596 8.48645 18.2453 8.49319L18.2453 8.49319Z" fill="#FFBA48"/>
</svg>
