<svg width="111" height="27" viewBox="0 0 111 27" fill="none" xmlns="http://www.w3.org/2000/svg">
<path fill-rule="evenodd" clip-rule="evenodd" d="M0.749023 6.16346L12.6208 0L24.6201 6.16346L12.6208 12.3424L0.749023 6.16346ZM72.0185 9.15634V9.00747C72.0185 6.97931 73.2116 6.32887 75.2211 6.47293V2.76451C70.4071 2.47104 68.1255 4.88285 68.1255 9.00747V9.15634H65.9485V12.8653H68.1255V24.092H72.0185V12.8653H76.498V24.092H80.391V12.8653H83.5936V9.15634H80.391V9.00747C80.391 6.97931 81.5633 6.32887 83.5936 6.47293V2.76451C78.7796 2.47104 76.498 4.88285 76.498 9.00747V9.15634H72.0185ZM44.8072 13.2175C46.042 12.2357 46.7954 10.8323 46.7954 9.02881C46.7954 5.53329 43.9487 3.14336 40.3694 3.14336H32.0593V24.0493H41.0391C44.7021 24.0493 47.6326 21.5788 47.6326 17.9984C47.591 15.8374 46.5024 14.1827 44.8072 13.2175ZM40.3902 7.01719C41.73 7.01719 42.651 8.00379 42.651 9.32229C42.651 10.645 41.6879 11.6268 40.3902 11.6268H36.225V7.01719H40.3902ZM41.0182 20.2181H36.225V15.2926H41.0182C42.4418 15.2926 43.4674 16.3384 43.4674 17.7417C43.4674 19.167 42.4418 20.2181 41.0182 20.2181ZM59.7733 9.135V17.198C59.7733 19.7966 58.3502 20.9064 56.4453 20.9064C54.6866 20.9064 53.4519 19.8606 53.4519 17.8271V9.135H49.5583V18.3079C49.5583 22.2884 52.0496 24.4921 55.273 24.4921C57.3033 24.4921 58.8731 23.7345 59.7525 22.3952V24.0706H63.6455V9.135H59.7733ZM99.7319 18.1846H88.3457C88.9108 20.1541 90.543 20.9918 92.5739 20.9918C94.1015 20.9918 95.316 20.3617 95.9648 19.5031L99.1044 21.2853C97.7022 23.3177 95.4414 24.4921 92.5317 24.4921C87.4664 24.4921 84.2638 21.0558 84.2638 16.5951C84.2638 12.129 87.4872 8.69212 92.2388 8.69212C96.6974 8.69212 99.8792 12.193 99.8792 16.5951C99.8792 17.1767 99.8162 17.6836 99.7319 18.1846ZM92.2388 12.193C90.1461 12.193 88.7219 13.3028 88.2822 15.2072H95.9856C95.5038 13.0521 93.8716 12.193 92.2388 12.193ZM105.51 11.7122V9.135H101.617V24.0706H105.51V16.9259C105.51 13.7825 108.064 12.8866 110.094 13.1369V8.84206C108.189 8.84206 106.284 9.67979 105.51 11.7122ZM12.6208 22.9127L4.52148 18.5106L0.749023 20.5543L12.6208 27L24.6201 20.5543L20.8049 18.5106L12.6208 22.9127ZM4.52148 11.5687L12.6208 15.5594L20.8049 11.5687L24.6201 13.4309L12.6208 19.2843L0.749023 13.4309L4.52148 11.5687Z" fill="#B0B0B0"/>
</svg>
