<svg width="134" height="27" viewBox="0 0 134 27" fill="none" xmlns="http://www.w3.org/2000/svg">
<g id="Element">
<path d="M8.64688 10.2806L16.3084 5.39028L23.9699 10.2398L16.3084 15.1301L23.9292 20.0611L31.5907 15.1708L23.9292 10.2806L31.5907 5.39028L23.9292 0.5L16.3084 5.39028L8.64688 0.5L0.985352 5.39028L8.64688 10.2398L0.985352 15.1301L8.64688 20.0611L16.3084 15.1708L8.64688 10.2806Z" fill="#B0B0B0"/>
<path d="M16.2677 16.7194L8.60613 21.6097L16.2677 26.5L23.9292 21.6097L16.2677 16.7194Z" fill="#B0B0B0"/>
<path fill-rule="evenodd" clip-rule="evenodd" d="M43.7747 5.39075H37.5803V21.6102H43.897C47.9315 21.6102 50.988 19.2465 50.988 13.9895V12.8892C50.988 7.67288 47.7278 5.39075 43.7747 5.39075ZM41.0443 18.6353V8.32491H43.571C45.8531 8.32491 47.4425 9.792 47.4425 13.0522V13.908C47.4425 17.1682 45.9346 18.6353 43.6932 18.6353H41.0443Z" fill="#B0B0B0"/>
<path d="M55.5931 8.48792H52.8626V21.6509H56.2859V15.6196C56.2859 12.8484 56.9787 11.8704 59.7906 11.8704H61.217V8.36567H60.3611C57.916 8.36567 56.5711 9.46598 56.0413 11.5444L55.5931 8.48792Z" fill="#B0B0B0"/>
<path fill-rule="evenodd" clip-rule="evenodd" d="M61.9097 14.9675V15.3343C61.9097 19.6541 64.3142 21.9362 68.5525 21.977C72.5462 21.977 75.1952 19.6541 75.1952 15.3343V14.9675C75.1952 10.5663 72.4647 8.1619 68.5525 8.1619C64.7217 8.1619 61.9097 10.5663 61.9097 14.9675ZM71.6904 14.9675V15.2936C71.6904 17.6572 70.4678 18.9613 68.5117 19.002C66.5556 19.002 65.333 17.6572 65.333 15.2936V14.9675C65.333 12.4002 66.5963 11.0553 68.5117 11.0553C70.4678 11.0553 71.6904 12.5224 71.6904 14.9675Z" fill="#B0B0B0"/>
<path fill-rule="evenodd" clip-rule="evenodd" d="M79.841 8.48792H76.9883L76.9475 26.1744H80.2893V19.5318C80.9821 21.0396 82.4084 21.977 84.4868 21.977C87.584 21.977 90.0292 19.6948 90.0292 15.3751V15.0083C90.0292 10.5663 87.8285 8.1619 84.4868 8.1619C82.3269 8.1619 80.8598 9.30297 80.167 10.9738L79.841 8.48792ZM86.5652 15.0083V15.2936C86.5652 17.7387 85.3426 19.002 83.3865 19.0428C81.4711 19.0428 80.2485 17.5757 80.2485 15.2528V15.0083C80.2485 12.5632 81.5118 11.0961 83.4272 11.0961C85.2204 11.0961 86.5652 12.4002 86.5652 15.0083Z" fill="#B0B0B0"/>
<path fill-rule="evenodd" clip-rule="evenodd" d="M94.7973 21.6102L95.0825 19.2058C95.7753 20.9174 97.2017 21.9362 99.4023 21.977C102.744 21.977 104.945 19.4911 104.945 15.1306V14.723C104.945 10.3625 102.622 8.20266 99.4838 8.1619C97.4054 8.1619 95.9383 9.09921 95.2048 10.8108V4.08667H91.8631V21.6102H94.7973ZM98.302 11.0553C100.136 11.0553 101.44 12.4002 101.44 14.8045V15.1306C101.44 17.7387 100.258 19.002 98.2613 19.002C96.3866 19.002 95.1233 17.5757 95.1233 15.1306V14.8453C95.1233 12.5632 96.4274 11.0553 98.302 11.0553Z" fill="#B0B0B0"/>
<path fill-rule="evenodd" clip-rule="evenodd" d="M106.412 14.9675V15.3343C106.412 19.6541 108.816 21.9362 113.055 21.977C117.008 21.977 119.697 19.6541 119.697 15.3343V14.9675C119.697 10.5663 116.967 8.1619 113.055 8.1619C109.224 8.1619 106.412 10.5663 106.412 14.9675ZM116.233 14.9675V15.2936C116.233 17.6572 115.011 18.9613 113.055 19.002C111.098 19.002 109.876 17.6572 109.876 15.2936V14.9675C109.876 12.4002 111.139 11.0553 113.055 11.0553C115.011 11.0553 116.233 12.5224 116.233 14.9675Z" fill="#B0B0B0"/>
<path d="M119.575 8.48792L124.18 14.8045L119.167 21.6102H123.202L126.136 17.2497L129.152 21.6102H133.023L128.092 14.7638L132.779 8.48792H128.867L126.177 12.4409L123.528 8.48792H119.575Z" fill="#B0B0B0"/>
</g>
</svg>
