<svg width="125" height="29" viewBox="0 0 125 29" fill="none" xmlns="http://www.w3.org/2000/svg">
<g id="Element">
<path d="M19.4558 9.83333V0.5H0.789062L10.1224 9.83333H0.789062V19.1667L10.1224 28.5V19.1667H19.4558L10.1224 9.83333H19.4558Z" fill="#B0B0B0"/>
<path d="M36.0145 23.2318V4.56509H47.4052V8.17799H40.3299V13.1959H47.4052V16.7586H40.3299V23.2318H36.0145Z" fill="#B0B0B0"/>
<path d="M50.2646 23.1814V10.3857H54.3292V13.0452C54.5299 12.142 54.9815 11.3893 55.6338 10.8875C56.2862 10.3857 57.0388 10.1348 57.8417 10.1348C58.2431 10.1348 58.6446 10.185 58.8955 10.2351V14.0488C58.7908 14.0383 58.6904 14.0278 58.5944 14.0178C58.2305 13.9798 57.9294 13.9484 57.6912 13.9484C55.4331 13.9484 54.3292 15.4036 54.3292 18.2136V23.1814H50.2646Z" fill="#B0B0B0"/>
<path fill-rule="evenodd" clip-rule="evenodd" d="M61.5064 21.6259C62.5601 22.8804 64.0655 23.5327 65.9222 23.5327C66.8254 23.5327 67.6283 23.3822 68.3308 22.9306C69.0835 22.5291 69.6354 22.0274 69.9867 21.375V23.1815H74.0512V10.3356H69.9867V12.1922C69.6354 11.4897 69.0835 10.9879 68.381 10.5865C67.6784 10.1851 66.8756 9.98434 65.9723 9.98434C64.1659 9.98434 62.6605 10.6367 61.5566 11.8912C60.4526 13.1958 59.9006 14.8015 59.9006 16.7585C59.9006 18.7155 60.4024 20.3714 61.5064 21.6259ZM69.3344 19.2173C68.8326 19.8696 68.0297 20.1707 67.0763 20.1707C66.1731 20.1707 65.4204 19.8696 64.8684 19.2675C64.3164 18.6152 64.0153 17.8123 64.0153 16.8087C64.0153 15.8553 64.3164 15.0023 64.8684 14.4001C65.4204 13.7478 66.1731 13.4467 67.0763 13.4467C68.0297 13.4467 68.7824 13.7478 69.3344 14.4001C69.8863 15.0524 70.1372 15.8553 70.1372 16.8087C70.1372 17.7621 69.8362 18.565 69.3344 19.2173Z" fill="#B0B0B0"/>
<path d="M77.4125 23.2319V10.3861H81.477V12.2427C81.7781 11.5904 82.2297 11.0384 82.882 10.637C83.5343 10.2355 84.287 10.0348 85.1401 10.0348C87.1473 10.0348 88.5021 10.8377 89.1544 12.3932C89.5057 11.6907 90.0577 11.0886 90.7602 10.6871C91.5129 10.2355 92.3157 10.0348 93.219 10.0348C96.2799 10.0348 97.7853 11.7911 97.7853 15.2535V23.2319H93.6706V16.0061C93.6706 14.3 93.0182 13.4972 91.7638 13.4972C90.3086 13.4972 89.606 14.5509 89.606 16.6585V23.2821H85.5917V15.956C85.5917 14.3 84.9394 13.447 83.6849 13.447C82.9824 13.447 82.4304 13.6979 82.0791 14.1495C81.7279 14.6011 81.5272 15.4542 81.5272 16.6083V23.2319H77.4125Z" fill="#B0B0B0"/>
<path fill-rule="evenodd" clip-rule="evenodd" d="M113.67 17.5424L113.67 17.5414C113.709 17.0084 113.743 16.5574 113.743 16.1065C113.743 14.3 113.09 12.8449 111.936 11.7409C110.682 10.5868 109.076 10.0348 107.069 10.0348C105.012 10.0348 103.305 10.637 102.051 11.8413C100.796 13.0456 100.144 14.7015 100.144 16.809C100.144 18.9667 100.796 20.6226 102.051 21.8269C103.305 23.0312 105.012 23.6334 107.219 23.6334C108.926 23.6334 110.331 23.232 111.535 22.4291C112.689 21.6764 113.391 20.6226 113.592 19.3681H109.578C109.227 20.171 108.424 20.5725 107.169 20.5725C106.266 20.5725 105.563 20.3216 105.012 19.8699C104.46 19.4183 104.209 18.766 104.158 17.913H113.642C113.652 17.7848 113.661 17.6615 113.67 17.5424ZM109.678 15.3538H104.108C104.158 14.6011 104.409 13.9488 104.911 13.447C105.413 12.9452 106.115 12.6943 106.969 12.6943C107.872 12.6943 108.524 12.9452 108.976 13.3968C109.427 13.8484 109.678 14.5008 109.678 15.3538Z" fill="#B0B0B0"/>
<path d="M116.051 23.1814V10.3857H120.115V13.0452C120.316 12.142 120.767 11.3893 121.42 10.8875C122.072 10.3857 122.825 10.1348 123.628 10.1348C124.029 10.1348 124.431 10.185 124.681 10.2351V14.0488C124.577 14.0383 124.476 14.0278 124.38 14.0178C124.016 13.9798 123.715 13.9484 123.477 13.9484C121.219 13.9484 120.115 15.4036 120.115 18.2136V23.1814H116.051Z" fill="#B0B0B0"/>
</g>
</svg>
