<svg width="99" height="29" viewBox="0 0 99 29" fill="none" xmlns="http://www.w3.org/2000/svg">
<g id="Element">
<path fill-rule="evenodd" clip-rule="evenodd" d="M83.9341 6.27299V9.54389C85.0155 9.70803 86.0451 10.1175 86.9438 10.741C87.8425 11.3645 88.5866 12.1854 89.1191 13.1409C89.6515 14.0964 89.9582 15.1611 90.0156 16.2534C90.0731 17.3457 89.8797 18.4367 89.4503 19.4427C89.021 20.4487 88.3671 21.3431 87.5387 22.0574C86.7102 22.7717 85.7293 23.2869 84.671 23.5635C83.6128 23.8401 82.5052 23.8708 81.4332 23.6533C80.3613 23.4357 79.3533 22.9757 78.4866 22.3085L75.8287 24.9673C75.8982 25.1844 75.9351 25.4107 75.9381 25.6387C75.9377 26.0995 75.8008 26.5498 75.5445 26.9328C75.2883 27.3158 74.9243 27.6142 74.4985 27.7903C74.0728 27.9665 73.6043 28.0125 73.1524 27.9225C72.7005 27.8325 72.2854 27.6106 71.9596 27.2848C71.6338 26.959 71.4118 26.5439 71.3219 26.092C71.2319 25.6401 71.2779 25.1716 71.454 24.7459C71.6302 24.3201 71.9286 23.9561 72.3116 23.6999C72.6946 23.4436 73.1449 23.3067 73.6057 23.3063C73.8337 23.3094 74.0599 23.3463 74.2771 23.4158L76.9638 20.7282C76.138 19.5514 75.6859 18.1531 75.6663 16.7156C75.6468 15.278 76.0608 13.868 76.8543 12.6692L68.0209 5.79539C67.5963 6.0422 67.1144 6.1733 66.6233 6.17561C66.062 6.17488 65.5134 6.00768 65.0471 5.69517C64.5808 5.38265 64.2177 4.93886 64.0036 4.41993C63.7896 3.901 63.7342 3.33025 63.8446 2.77986C63.9549 2.22947 64.2261 1.72418 64.6236 1.3279C65.0212 0.931618 65.5274 0.662151 66.0782 0.553583C66.6289 0.445015 67.1995 0.502224 67.7177 0.717973C68.236 0.933721 68.6786 1.29832 68.9895 1.76564C69.3005 2.23297 69.466 2.78203 69.4649 3.34337C69.4611 3.58171 69.4278 3.81912 69.3638 4.05004L78.3345 11.037C79.3137 10.2492 80.4837 9.73411 81.726 9.54389V6.27299C81.2937 6.07098 80.9277 5.75035 80.6706 5.34844C80.4135 4.94653 80.2759 4.47985 80.2737 4.00274V3.92763C80.2737 3.2596 80.539 2.61894 81.0114 2.14657C81.4838 1.67421 82.1244 1.40884 82.7925 1.40884H82.8676C84.2587 1.40884 85.3864 2.53654 85.3864 3.92763V4.00274C85.3842 4.47985 85.2465 4.94653 84.9894 5.34844C84.7323 5.75035 84.3663 6.07098 83.9341 6.27299ZM81.3944 20.0514C81.8522 20.23 82.3411 20.3151 82.8323 20.3016L82.8361 20.2997C83.7881 20.2654 84.6896 19.863 85.3508 19.1772C86.012 18.4914 86.3813 17.5758 86.3808 16.6232C86.3803 15.6705 86.0101 14.7553 85.3482 14.0702C84.6864 13.385 83.7844 12.9835 82.8323 12.9502C82.3411 12.9367 81.8522 13.0217 81.3944 13.2004C80.9366 13.379 80.5193 13.6476 80.1671 13.9903C79.8149 14.3329 79.5349 14.7427 79.3438 15.1954C79.1526 15.6481 79.0541 16.1345 79.0541 16.6259C79.0541 17.1173 79.1526 17.6037 79.3438 18.0564C79.5349 18.5091 79.8149 18.9188 80.1671 19.2615C80.5193 19.6042 80.9366 19.8727 81.3944 20.0514Z" fill="#B0B0B0"/>
<path d="M11.3282 13.0989V5.23924H14.7549V24.0012H11.3272V16.3967H4.10837V24.0012H0.681641V5.23924H4.10745V13.0989H11.3282Z" fill="#B0B0B0"/>
<path d="M24.8927 19.942C25.4245 19.4103 25.7232 18.6891 25.7232 17.937V9.9003H28.9617V17.937C28.9617 19.5495 28.3211 21.096 27.1809 22.2362C26.0407 23.3764 24.4942 24.017 22.8817 24.017C21.2691 24.017 19.7227 23.3764 18.5825 22.2362C17.4422 21.096 16.8017 19.5495 16.8017 17.937V9.9003H20.0522V17.937C20.0522 18.6891 20.3509 19.4103 20.8827 19.942C21.4144 20.4738 22.1357 20.7725 22.8877 20.7725C23.6397 20.7725 24.3609 20.4738 24.8927 19.942Z" fill="#B0B0B0"/>
<path d="M52.0919 8.55837C50.8983 8.55837 49.8086 9.08049 49.8086 10.7285H49.8031C49.8031 11.9424 51.0271 12.329 52.5033 12.7951C54.7451 13.503 57.5682 14.3945 57.5682 18.6465C57.5682 21.9146 54.8732 24.0049 51.5225 24.0049C49.2902 24.0049 47.4262 23.0627 45.9145 21.2079L48.2775 18.7513C48.358 18.8419 48.4363 18.9321 48.5136 19.0211C49.2848 19.9089 49.9588 20.6849 51.7061 20.6849C52.9247 20.6849 53.9893 19.7167 53.9893 18.6205C53.9893 17.0989 52.5673 16.5977 50.9404 16.0243C48.7658 15.2578 46.2252 14.3624 46.2252 10.7285C46.2252 7.30454 48.7755 5.23924 52.3024 5.23924C54.0672 5.23924 56.2225 6.23248 57.2853 7.66993L55.1569 10.1794C54.3251 9.291 53.0545 8.55837 52.0919 8.55837Z" fill="#B0B0B0"/>
<path d="M95.3754 18.9006C95.3754 20.173 95.9216 21.0039 97.8422 21.0039V21.0011C98.2067 21.0011 98.6231 20.9761 98.9857 20.9511L98.1817 23.9113C97.7532 23.9873 97.3173 24.0226 96.8815 24.0151C94.1048 24.0151 92.0794 22.536 92.0794 19.6008V8.12528L95.3754 6.64609V10.4122H98.3616V13.2667H95.3754V18.9006Z" fill="#B0B0B0"/>
<path fill-rule="evenodd" clip-rule="evenodd" d="M34.2757 11.5269C35.3626 10.4614 36.4866 9.99396 38.0965 9.99396V9.99675C41.7319 9.99675 44.8582 13.0349 44.8582 17.0078C44.8582 21.0308 41.4611 24.0189 37.5995 24.0189C34.118 24.0189 31.0205 21.0827 31.0205 16.7982V5.35146H34.2757V11.5269ZM36.6624 20.4612C37.1106 20.6468 37.591 20.7424 38.0761 20.7424C39.0559 20.7424 39.9956 20.3532 40.6884 19.6604C41.3812 18.9676 41.7704 18.0279 41.7704 17.0481C41.7704 16.0684 41.3812 15.1287 40.6884 14.4359C39.9956 13.7431 39.0559 13.3539 38.0761 13.3539C37.591 13.3539 37.1106 13.4494 36.6624 13.6351C36.2142 13.8208 35.8069 14.0929 35.4639 14.4359C35.1208 14.779 34.8487 15.1862 34.6631 15.6344C34.4774 16.0826 34.3819 16.563 34.3819 17.0481C34.3819 17.5333 34.4774 18.0137 34.6631 18.4619C34.8487 18.9101 35.1208 19.3173 35.4639 19.6604C35.8069 20.0034 36.2142 20.2755 36.6624 20.4612Z" fill="#B0B0B0"/>
<path fill-rule="evenodd" clip-rule="evenodd" d="M66.1902 9.82611C70.0593 9.82611 73.4489 12.8067 73.4489 16.8372C73.4489 20.811 70.3208 23.8491 66.6854 23.8491C65.0773 23.8491 63.9514 23.3799 62.8664 22.3162V28.5H59.6112V17.0468C59.6112 12.7613 62.7097 9.82611 66.1902 9.82611ZM69.2842 19.4086C69.977 18.7158 70.3662 17.7761 70.3662 16.7964C70.3662 15.8166 69.977 14.8769 69.2842 14.1841C68.5914 13.4913 67.6518 13.1021 66.672 13.1021C65.6922 13.1021 64.7525 13.4913 64.0597 14.1841C63.3669 14.8769 62.9777 15.8166 62.9777 16.7964C62.9777 17.7761 63.3669 18.7158 64.0597 19.4086C64.7525 20.1014 65.6922 20.4906 66.672 20.4906C67.6518 20.4906 68.5914 20.1014 69.2842 19.4086Z" fill="#B0B0B0"/>
</g>
</svg>
