<svg width="243" height="66" viewBox="0 0 243 66" fill="none" xmlns="http://www.w3.org/2000/svg">
<rect x="0.5" y="0.5" width="242" height="65" rx="11.5" fill="#FF6153"/>
<path fill-rule="evenodd" clip-rule="evenodd" d="M27.5 48.5C36.0604 48.5 43 41.5604 43 33C43 24.4396 36.0604 17.5 27.5 17.5C18.9396 17.5 12 24.4396 12 33C12 41.5604 18.9396 48.5 27.5 48.5ZM25.0928 33.456L29.4328 33.4559C30.7018 33.4559 31.7305 32.4149 31.7305 31.1309C31.7305 29.8468 30.7018 28.806 29.4328 28.806H25.0928V33.456ZM22.0293 25.7059H29.4328C32.3937 25.7059 34.794 28.1347 34.794 31.1309C34.794 34.127 32.3937 36.556 29.4328 36.556H25.0928V41.2059H22.0293V25.7059Z" fill="white"/>
<path d="M55.6855 17.5312H60.2778V18.6694H57.0303V20.1592H59.8735V21.2842H57.0303V24H55.6855V17.5312ZM65.9775 18.6694H62.5498V20.0449H65.6963V21.1699H62.5498V22.8354H66.1357V24H61.2271V17.5225H65.9775V18.6694ZM68.9614 21.5522H70.605L69.7964 19.0034L68.9614 21.5522ZM69.0449 17.5225H70.5742L72.8682 24H71.4004L70.9829 22.6685H68.5967L68.1484 24H66.7334L69.0449 17.5225ZM77.7329 17.5225V18.6694H75.7949V24H74.4326V18.6694H72.4858V17.5225H77.7329ZM78.5283 17.5225H79.9038V21.5039C79.9038 21.9492 79.9565 22.2744 80.062 22.4795C80.2261 22.8428 80.5835 23.0244 81.1343 23.0244C81.6821 23.0244 82.0381 22.8428 82.2021 22.4795C82.3076 22.2744 82.3604 21.9492 82.3604 21.5039V17.5225H83.7358V21.5039C83.7358 22.1924 83.6289 22.7285 83.415 23.1123C83.0166 23.8154 82.2563 24.167 81.1343 24.167C80.0122 24.167 79.2505 23.8154 78.8491 23.1123C78.6353 22.7285 78.5283 22.1924 78.5283 21.5039V17.5225ZM86.3857 18.6475V20.3877H87.9194C88.2241 20.3877 88.4526 20.3525 88.605 20.2822C88.8745 20.1592 89.0093 19.916 89.0093 19.5527C89.0093 19.1602 88.8789 18.8965 88.6182 18.7617C88.4717 18.6855 88.252 18.6475 87.959 18.6475H86.3857ZM88.2402 17.5225C88.6943 17.5312 89.043 17.5869 89.2861 17.6895C89.5322 17.792 89.7402 17.9429 89.9102 18.1421C90.0508 18.3062 90.1621 18.4878 90.2441 18.687C90.3262 18.8862 90.3672 19.1133 90.3672 19.3682C90.3672 19.6758 90.2896 19.979 90.1343 20.2778C89.979 20.5737 89.7227 20.7832 89.3652 20.9062C89.6641 21.0264 89.875 21.1978 89.998 21.4204C90.124 21.6401 90.187 21.9771 90.187 22.4312V22.8662C90.187 23.1621 90.1987 23.3628 90.2222 23.4683C90.2573 23.6353 90.3394 23.7583 90.4683 23.8374V24H88.9785C88.9375 23.8564 88.9082 23.7407 88.8906 23.6528C88.8555 23.4712 88.8364 23.2852 88.8335 23.0947L88.8247 22.4927C88.8188 22.0796 88.7427 21.8042 88.5962 21.6665C88.4526 21.5288 88.1816 21.46 87.7832 21.46H86.3857V24H85.063V17.5225H88.2402ZM96.3262 18.6694H92.8984V20.0449H96.0449V21.1699H92.8984V22.8354H96.4844V24H91.5757V17.5225H96.3262V18.6694ZM98.853 18.6475V22.875H100.101C100.74 22.875 101.185 22.5601 101.437 21.9302C101.575 21.5845 101.644 21.1729 101.644 20.6953C101.644 20.0361 101.54 19.5308 101.332 19.1792C101.126 18.8247 100.716 18.6475 100.101 18.6475H98.853ZM100.33 17.5225C100.731 17.5283 101.065 17.5752 101.332 17.6631C101.786 17.8125 102.153 18.0864 102.435 18.4849C102.66 18.8071 102.814 19.1558 102.896 19.5308C102.978 19.9058 103.019 20.2632 103.019 20.603C103.019 21.4644 102.846 22.1938 102.5 22.7915C102.032 23.5972 101.308 24 100.33 24H97.5391V17.5225H100.33ZM109.413 23.0332C109.949 23.0332 110.374 22.8354 110.688 22.4399C111.004 22.0444 111.162 21.4819 111.162 20.7524C111.162 20.0259 111.004 19.4648 110.688 19.0693C110.374 18.6709 109.949 18.4717 109.413 18.4717C108.877 18.4717 108.449 18.6694 108.13 19.0649C107.811 19.4604 107.651 20.0229 107.651 20.7524C107.651 21.4819 107.811 22.0444 108.13 22.4399C108.449 22.8354 108.877 23.0332 109.413 23.0332ZM112.516 20.7524C112.516 21.9155 112.189 22.8062 111.536 23.4243C111.046 23.9282 110.339 24.1802 109.413 24.1802C108.487 24.1802 107.78 23.9282 107.291 23.4243C106.634 22.8062 106.306 21.9155 106.306 20.7524C106.306 19.5659 106.634 18.6753 107.291 18.0806C107.78 17.5767 108.487 17.3247 109.413 17.3247C110.339 17.3247 111.046 17.5767 111.536 18.0806C112.189 18.6753 112.516 19.5659 112.516 20.7524ZM113.531 17.5225H114.95L117.53 22.0444V17.5225H118.791V24H117.438L114.792 19.3989V24H113.531V17.5225Z" fill="white"/>
<path d="M65.1104 34.6948C65.1104 33.9087 64.9019 33.3481 64.4849 33.0132C64.0747 32.6782 63.4971 32.5107 62.752 32.5107H59.8091V36.9609H62.752C63.4971 36.9609 64.0747 36.7798 64.4849 36.4175C64.9019 36.0552 65.1104 35.481 65.1104 34.6948ZM68.2378 34.6743C68.2378 36.4585 67.7866 37.7197 66.8843 38.458C65.9819 39.1963 64.6934 39.5654 63.0186 39.5654H59.8091V45H56.6714V29.8857H63.2544C64.772 29.8857 65.9819 30.2754 66.8843 31.0547C67.7866 31.834 68.2378 33.0405 68.2378 34.6743ZM76.4409 33.5566C76.4956 33.5566 76.54 33.5601 76.5742 33.5669C76.6152 33.5669 76.7007 33.5703 76.8306 33.5771V36.5713C76.646 36.5508 76.4819 36.5371 76.3384 36.5303C76.1948 36.5234 76.0786 36.52 75.9897 36.52C74.814 36.52 74.0244 36.9028 73.6211 37.6685C73.3955 38.0991 73.2827 38.7622 73.2827 39.6577V45H70.3398V33.8232H73.1289V35.7715C73.5801 35.0264 73.9731 34.5171 74.3081 34.2437C74.855 33.7856 75.5659 33.5566 76.4409 33.5566ZM83.5674 42.939C84.4219 42.939 85.0781 42.6348 85.5361 42.0264C85.9941 41.418 86.2231 40.5532 86.2231 39.4321C86.2231 38.311 85.9941 37.4497 85.5361 36.8481C85.0781 36.2397 84.4219 35.9355 83.5674 35.9355C82.7129 35.9355 82.0532 36.2397 81.5884 36.8481C81.1304 37.4497 80.9014 38.311 80.9014 39.4321C80.9014 40.5532 81.1304 41.418 81.5884 42.0264C82.0532 42.6348 82.7129 42.939 83.5674 42.939ZM89.2891 39.4321C89.2891 41.0728 88.8174 42.4775 87.874 43.6465C86.9307 44.8086 85.4985 45.3896 83.5776 45.3896C81.6567 45.3896 80.2246 44.8086 79.2812 43.6465C78.3379 42.4775 77.8662 41.0728 77.8662 39.4321C77.8662 37.8188 78.3379 36.4209 79.2812 35.2383C80.2246 34.0557 81.6567 33.4644 83.5776 33.4644C85.4985 33.4644 86.9307 34.0557 87.874 35.2383C88.8174 36.4209 89.2891 37.8188 89.2891 39.4321ZM95.5132 33.5566C96.1899 33.5566 96.7915 33.707 97.3179 34.0078C97.8442 34.3018 98.2715 34.7119 98.5996 35.2383V29.9062H101.563V45H98.7227V43.4517C98.3057 44.1147 97.8306 44.5967 97.2974 44.8975C96.7642 45.1982 96.1011 45.3486 95.3081 45.3486C94.0024 45.3486 92.9019 44.8223 92.0063 43.7695C91.1177 42.71 90.6733 41.353 90.6733 39.6987C90.6733 37.7915 91.1108 36.291 91.9858 35.1973C92.8677 34.1035 94.0435 33.5566 95.5132 33.5566ZM96.1489 42.8877C96.9761 42.8877 97.605 42.5801 98.0356 41.9648C98.4663 41.3496 98.6816 40.5532 98.6816 39.5757C98.6816 38.2085 98.3364 37.231 97.646 36.6431C97.2222 36.2876 96.73 36.1099 96.1694 36.1099C95.3149 36.1099 94.686 36.4346 94.2827 37.084C93.8862 37.7266 93.688 38.5264 93.688 39.4834C93.688 40.5156 93.8896 41.3428 94.293 41.9648C94.7031 42.5801 95.3218 42.8877 96.1489 42.8877ZM107.141 33.8232V40.5601C107.141 41.1958 107.216 41.6743 107.367 41.9956C107.633 42.563 108.156 42.8467 108.936 42.8467C109.934 42.8467 110.617 42.4434 110.986 41.6367C111.178 41.1992 111.273 40.6216 111.273 39.9038V33.8232H114.237V45H111.396V43.4209C111.369 43.4551 111.301 43.5576 111.191 43.7285C111.082 43.8994 110.952 44.0498 110.802 44.1797C110.344 44.5898 109.899 44.8701 109.469 45.0205C109.045 45.1709 108.546 45.2461 107.972 45.2461C106.317 45.2461 105.203 44.6514 104.629 43.4619C104.308 42.8057 104.147 41.8384 104.147 40.5601V33.8232H107.141ZM123.742 37.8325C123.688 37.4155 123.547 37.0396 123.322 36.7046C122.994 36.2534 122.484 36.0278 121.794 36.0278C120.81 36.0278 120.136 36.5166 119.774 37.4941C119.583 38.0137 119.487 38.7041 119.487 39.5654C119.487 40.3857 119.583 41.0454 119.774 41.5444C120.123 42.4741 120.779 42.939 121.743 42.939C122.426 42.939 122.912 42.7544 123.199 42.3853C123.486 42.0161 123.66 41.5376 123.722 40.9497H126.706C126.637 41.8384 126.316 42.6792 125.742 43.4722C124.826 44.7505 123.469 45.3896 121.671 45.3896C119.873 45.3896 118.55 44.8564 117.703 43.79C116.855 42.7236 116.431 41.3394 116.431 39.6372C116.431 37.7163 116.899 36.2227 117.836 35.1562C118.772 34.0898 120.064 33.5566 121.712 33.5566C123.113 33.5566 124.258 33.8711 125.147 34.5C126.042 35.1289 126.572 36.2397 126.736 37.8325H123.742ZM127.608 36.0073V33.9258H129.167V30.8086H132.058V33.9258H133.873V36.0073H132.058V41.9136C132.058 42.3716 132.116 42.6587 132.232 42.7749C132.349 42.8843 132.704 42.939 133.299 42.939C133.388 42.939 133.48 42.939 133.576 42.939C133.678 42.9321 133.777 42.9253 133.873 42.9185V45.1025L132.489 45.1538C131.108 45.2017 130.165 44.9624 129.659 44.436C129.331 44.1011 129.167 43.585 129.167 42.8877V36.0073H127.608ZM141.81 45V29.8857H144.937V35.6484H150.843V29.8857H153.981V45H150.843V38.2529H144.937V45H141.81ZM159.682 33.8232V40.5601C159.682 41.1958 159.757 41.6743 159.908 41.9956C160.174 42.563 160.697 42.8467 161.477 42.8467C162.475 42.8467 163.158 42.4434 163.527 41.6367C163.719 41.1992 163.814 40.6216 163.814 39.9038V33.8232H166.778V45H163.938V43.4209C163.91 43.4551 163.842 43.5576 163.732 43.7285C163.623 43.8994 163.493 44.0498 163.343 44.1797C162.885 44.5898 162.44 44.8701 162.01 45.0205C161.586 45.1709 161.087 45.2461 160.513 45.2461C158.858 45.2461 157.744 44.6514 157.17 43.4619C156.849 42.8057 156.688 41.8384 156.688 40.5601V33.8232H159.682ZM175.801 33.5566C176.957 33.5566 177.9 33.8608 178.631 34.4692C179.37 35.0708 179.739 36.0723 179.739 37.4736V45H176.745V38.2017C176.745 37.6138 176.666 37.1626 176.509 36.8481C176.222 36.2739 175.675 35.9868 174.868 35.9868C173.877 35.9868 173.197 36.4072 172.828 37.248C172.636 37.6924 172.541 38.2598 172.541 38.9502V45H169.628V33.8438H172.448V35.4741C172.824 34.8999 173.18 34.4863 173.515 34.2334C174.116 33.7822 174.878 33.5566 175.801 33.5566ZM181.297 36.0073V33.9258H182.856V30.8086H185.748V33.9258H187.562V36.0073H185.748V41.9136C185.748 42.3716 185.806 42.6587 185.922 42.7749C186.038 42.8843 186.394 42.939 186.988 42.939C187.077 42.939 187.169 42.939 187.265 42.939C187.368 42.9321 187.467 42.9253 187.562 42.9185V45.1025L186.178 45.1538C184.797 45.2017 183.854 44.9624 183.348 44.436C183.02 44.1011 182.856 43.585 182.856 42.8877V36.0073H181.297Z" fill="white"/>
<path fill-rule="evenodd" clip-rule="evenodd" d="M221.502 28.5H210.499L216 18.5L221.502 28.5Z" fill="white"/>
<path d="M201.934 44.5C201.951 43.8398 202.092 43.2368 202.359 42.6909C202.617 42.0773 203.226 41.4277 204.187 40.7422C205.021 40.1455 205.56 39.7181 205.806 39.46C206.182 39.0579 206.371 38.6178 206.371 38.1396C206.371 37.7503 206.263 37.4266 206.047 37.1685C205.831 36.9103 205.522 36.7812 205.12 36.7812C204.57 36.7812 204.195 36.9865 203.997 37.397C203.882 37.634 203.815 38.0106 203.793 38.5269H202.035C202.065 37.744 202.207 37.1113 202.46 36.6289C202.943 35.7106 203.8 35.2515 205.031 35.2515C206.005 35.2515 206.779 35.5223 207.354 36.064C207.93 36.6014 208.218 37.3145 208.218 38.2031C208.218 38.8844 208.015 39.4896 207.608 40.0186C207.342 40.3698 206.904 40.7612 206.294 41.1929L205.571 41.707C205.118 42.0286 204.807 42.2614 204.638 42.4053C204.473 42.5492 204.333 42.7163 204.219 42.9067H208.237V44.5H201.934ZM210.909 42.0371C210.981 42.4307 211.119 42.7354 211.322 42.9512C211.525 43.1628 211.821 43.2686 212.21 43.2686C212.659 43.2686 213 43.112 213.232 42.7988C213.469 42.4814 213.588 42.0837 213.588 41.6055C213.588 41.1357 213.478 40.7401 213.258 40.4185C213.038 40.0926 212.695 39.9297 212.229 39.9297C212.009 39.9297 211.819 39.9572 211.658 40.0122C211.375 40.1138 211.161 40.3021 211.017 40.5771L209.392 40.501L210.04 35.4165H215.111V36.9526H211.347L211.017 38.9648C211.296 38.7829 211.514 38.6623 211.671 38.603C211.933 38.5057 212.253 38.457 212.629 38.457C213.391 38.457 214.056 38.7131 214.623 39.2251C215.19 39.7371 215.473 40.4819 215.473 41.4595C215.473 42.3101 215.2 43.0697 214.654 43.7383C214.108 44.4069 213.292 44.7412 212.204 44.7412C211.328 44.7412 210.609 44.5063 210.046 44.0366C209.483 43.5669 209.17 42.9004 209.106 42.0371H210.909ZM222.798 42.5195H221.757V44.5H219.986V42.5195H216.343V40.939L219.726 35.353H221.757V41.104H222.798V42.5195ZM219.986 41.104V37.1304L217.682 41.104H219.986ZM223.624 38.5332C223.624 37.5472 223.907 36.7495 224.474 36.1401C225.045 35.5265 225.786 35.2197 226.696 35.2197C228.097 35.2197 229.057 35.8397 229.578 37.0796C229.874 37.7821 230.022 38.7067 230.022 39.8535C230.022 40.9665 229.88 41.8953 229.597 42.6401C229.055 44.0578 228.061 44.7666 226.613 44.7666C225.924 44.7666 225.304 44.5635 224.753 44.1572C224.203 43.7467 223.888 43.1501 223.808 42.3672H225.61C225.653 42.638 225.767 42.8581 225.953 43.0273C226.139 43.1966 226.387 43.2812 226.696 43.2812C227.292 43.2812 227.711 42.9512 227.953 42.291C228.084 41.9271 228.166 41.396 228.2 40.6978C228.035 40.9051 227.86 41.0638 227.673 41.1738C227.335 41.377 226.918 41.4785 226.423 41.4785C225.691 41.4785 225.041 41.2267 224.474 40.7231C223.907 40.2153 223.624 39.4854 223.624 38.5332ZM226.816 40.0059C227.066 40.0059 227.301 39.9339 227.521 39.79C227.931 39.5277 228.137 39.0728 228.137 38.4253C228.137 37.9048 228.014 37.4922 227.769 37.1875C227.527 36.8828 227.195 36.7305 226.772 36.7305C226.463 36.7305 226.199 36.8172 225.979 36.9907C225.632 37.2616 225.458 37.7207 225.458 38.3682C225.458 38.9141 225.568 39.3245 225.788 39.5996C226.012 39.8704 226.355 40.0059 226.816 40.0059Z" fill="white"/>
<rect x="0.5" y="0.5" width="242" height="65" rx="11.5" stroke="#FF6153"/>
</svg>
