<svg width="98" height="27" viewBox="0 0 98 27" fill="none" xmlns="http://www.w3.org/2000/svg">
<path d="M65.3638 0.5H61.2888V23.2906C64.9922 23.418 68.68 23.6048 72.3528 23.8497V19.8345C70.0295 19.6795 67.7 19.5481 65.3638 19.4394V0.5ZM97.7489 0.502305H93.2724L90.3218 7.34152L87.6709 0.502305H83.2616L87.9998 12.723L82.8275 24.712C84.2584 24.8515 85.6853 25.0005 87.1107 25.1578L90.119 18.187L93.0981 25.8713C94.6497 26.0708 96.1973 26.279 97.7421 26.4995L97.7489 26.4968L92.4403 12.8056L97.7489 0.502305ZM47.3004 23.0914L51.3756 23.0905V13.82H56.8998V9.80469H51.3756V4.55391H58.6766V0.502509H47.3004V23.0914ZM32.0827 4.55364H36.3478V23.3302C37.7039 23.2789 39.0627 23.2367 40.4229 23.2011V4.55364H44.6878V0.502305H32.0827V4.55364ZM18.1508 24.4972C21.9067 24.1558 25.68 23.8745 29.4704 23.6562V19.6405C27.0486 19.7805 24.6337 19.9462 22.2259 20.1356V14.0566C23.8058 14.0408 25.8861 13.9926 27.7291 14.0155V9.99993C26.2567 9.99634 23.8903 10.0205 22.2259 10.0418V4.55391H29.4704V0.502509H18.1508V24.4972ZM10.157 15.2144L4.84948 0.502305H0.976562V26.5C2.33232 26.307 3.69066 26.1222 5.05164 25.9449V11.8075L9.77096 25.3644C11.2553 25.1923 12.7423 25.0293 14.2322 24.876V0.502305H10.157V15.2144ZM75.7124 24.0915C77.0728 24.1956 78.4311 24.3073 79.7881 24.428V0.502305H75.7124V24.0915Z" fill="#B0B0B0"/>
</svg>
