<svg width="70" height="29" viewBox="0 0 70 29" fill="none" xmlns="http://www.w3.org/2000/svg">
<path id="Logo" fill-rule="evenodd" clip-rule="evenodd" d="M69.7889 14.984C69.7889 10.028 67.3883 6.11749 62.8 6.11749C58.1924 6.11749 55.4046 10.028 55.4046 14.9453C55.4046 20.7724 58.6958 23.715 63.4196 23.715C65.7234 23.715 67.4657 23.1923 68.7822 22.4566V18.5848C67.4657 19.243 65.9557 19.6495 64.0391 19.6495C62.1612 19.6495 60.4962 18.9913 60.2833 16.7069H69.7502C69.7502 16.4553 69.7889 15.4486 69.7889 14.984ZM60.2252 13.1449C60.2252 10.9573 61.561 10.0474 62.7807 10.0474C63.9616 10.0474 65.22 10.9573 65.22 13.1449H60.2252ZM47.9317 6.11749C46.0345 6.11749 44.8148 7.00801 44.1372 7.6275L43.8856 6.42724H39.6264V29L44.4663 27.974L44.4857 22.4953C45.1826 22.9987 46.2087 23.715 47.9124 23.715C51.3778 23.715 54.5334 20.9272 54.5334 14.7904C54.5141 9.17624 51.3197 6.11749 47.9317 6.11749ZM46.7702 19.4559C45.6279 19.4559 44.9503 19.0494 44.4857 18.5461L44.4663 11.3638C44.9697 10.8024 45.6666 10.4152 46.7702 10.4152C48.5319 10.4152 49.7516 12.3899 49.7516 14.9259C49.7516 17.52 48.5513 19.4559 46.7702 19.4559ZM32.9666 4.9753L37.8259 3.92991V0L32.9666 1.02603V4.9753ZM32.9666 6.4466H37.8259V23.3858H32.9666V6.4466ZM27.7589 7.87917L27.4491 6.4466H23.2674V23.3858H28.1073V11.9059C29.2496 10.4152 31.1855 10.6862 31.7857 10.8992V6.4466C31.1662 6.21429 28.9011 5.78838 27.7589 7.87917ZM18.079 2.24566L13.3552 3.25234L13.3358 18.759C13.3358 21.6242 15.4848 23.7343 18.35 23.7343C19.9375 23.7343 21.0991 23.4439 21.738 23.0955V19.1656C21.1185 19.4172 18.0596 20.3077 18.0596 17.4426V10.5701H21.738V6.4466H18.0596L18.079 2.24566ZM4.99177 11.3638C4.99177 10.6088 5.61128 10.3184 6.63735 10.3184C8.1087 10.3184 9.96723 10.7637 11.4386 11.5574V7.00801C9.83171 6.36916 8.24421 6.11749 6.63735 6.11749C2.70732 6.11749 0.09375 8.16956 0.09375 11.5961C0.09375 16.9393 7.45046 16.0875 7.45046 18.3912C7.45046 19.2817 6.67607 19.5721 5.59192 19.5721C3.98506 19.5721 1.93293 18.9139 0.306707 18.0234V22.6308C2.10717 23.4052 3.92698 23.7343 5.59192 23.7343C9.61876 23.7343 12.3872 21.7403 12.3872 18.275C12.3678 12.506 4.99177 13.532 4.99177 11.3638Z" fill="#B0B0B0"/>
</svg>
