<svg width="32" height="32" viewBox="0 0 32 32" fill="none" xmlns="http://www.w3.org/2000/svg">
<g id="vuesax/twotone/microscope">
<g id="microscope">
<g id="Group">
<path id="Vector" d="M20.0391 14.3599L27.5858 9.30664C28.3458 8.79997 28.5458 7.75997 28.0391 7.0133L25.6125 3.39994C25.1058 2.63994 24.0658 2.43994 23.3191 2.94661L15.7725 7.99996L20.0391 14.3599Z" stroke="#0F172A" stroke-width="1.5" stroke-linecap="round" stroke-linejoin="round"/>
<path id="Vector_2" d="M16.2316 8.63877L9.86133 12.9053L13.2745 18.0015L19.6448 13.735L16.2316 8.63877Z" stroke="#0F172A" stroke-width="1.5" stroke-linecap="round" stroke-linejoin="round"/>
<path id="Vector_3" d="M7.77339 21.1999L13.0401 17.6799L10.0534 13.2266L4.78672 16.7465C4.17338 17.1599 4.01339 17.9866 4.42672 18.5999L5.93338 20.8399C6.33338 21.4399 7.16006 21.5999 7.77339 21.1999Z" stroke="#0F172A" stroke-width="1.5" stroke-linecap="round" stroke-linejoin="round"/>
</g>
<path id="Vector_4" opacity="0.4" d="M16.0658 16.2666L10.0791 29.3333" stroke="#0F172A" stroke-width="1.5" stroke-linecap="round" stroke-linejoin="round"/>
<path id="Vector_5" opacity="0.4" d="M16 16.2666L21.92 29.3333" stroke="#0F172A" stroke-width="1.5" stroke-linecap="round" stroke-linejoin="round"/>
</g>
</g>
</svg>
