<svg width="32" height="32" viewBox="0 0 32 32" fill="none" xmlns="http://www.w3.org/2000/svg">
<g id="vuesax/twotone/category-2">
<g id="category-2">
<path id="Vector" d="M22.667 13.3337H25.3337C28.0003 13.3337 29.3337 12.0003 29.3337 9.33366V6.66699C29.3337 4.00033 28.0003 2.66699 25.3337 2.66699H22.667C20.0003 2.66699 18.667 4.00033 18.667 6.66699V9.33366C18.667 12.0003 20.0003 13.3337 22.667 13.3337Z" stroke="#0F172A" stroke-width="1.5" stroke-miterlimit="10" stroke-linecap="round" stroke-linejoin="round"/>
<path id="Vector_2" d="M6.66699 29.3337H9.33366C12.0003 29.3337 13.3337 28.0003 13.3337 25.3337V22.667C13.3337 20.0003 12.0003 18.667 9.33366 18.667H6.66699C4.00033 18.667 2.66699 20.0003 2.66699 22.667V25.3337C2.66699 28.0003 4.00033 29.3337 6.66699 29.3337Z" stroke="#0F172A" stroke-width="1.5" stroke-miterlimit="10" stroke-linecap="round" stroke-linejoin="round"/>
<path id="Vector_3" opacity="0.34" d="M8.00033 13.3337C10.9458 13.3337 13.3337 10.9458 13.3337 8.00033C13.3337 5.05481 10.9458 2.66699 8.00033 2.66699C5.05481 2.66699 2.66699 5.05481 2.66699 8.00033C2.66699 10.9458 5.05481 13.3337 8.00033 13.3337Z" stroke="#0F172A" stroke-width="1.5" stroke-miterlimit="10" stroke-linecap="round" stroke-linejoin="round"/>
<path id="Vector_4" opacity="0.34" d="M24.0003 29.3337C26.9458 29.3337 29.3337 26.9458 29.3337 24.0003C29.3337 21.0548 26.9458 18.667 24.0003 18.667C21.0548 18.667 18.667 21.0548 18.667 24.0003C18.667 26.9458 21.0548 29.3337 24.0003 29.3337Z" stroke="#0F172A" stroke-width="1.5" stroke-miterlimit="10" stroke-linecap="round" stroke-linejoin="round"/>
</g>
</g>
</svg>
