<svg width="1440" height="855" viewBox="0 0 1440 855" fill="none" xmlns="http://www.w3.org/2000/svg">
<line x1="1" y1="2" x2="1.00004" y2="855" stroke="#B0B0B0" stroke-opacity="0.08" stroke-width="2"/>
<line x1="758.896" y1="2" x2="758.896" y2="855" stroke="#B0B0B0" stroke-opacity="0.08" stroke-width="2"/>
<line y1="1" x2="1440" y2="1" stroke="#B0B0B0" stroke-opacity="0.08" stroke-width="2"/>
<line y1="498.54" x2="1440" y2="498.54" stroke="#B0B0B0" stroke-opacity="0.08" stroke-width="2"/>
<line y1="166.847" x2="1440" y2="166.847" stroke="#B0B0B0" stroke-opacity="0.08" stroke-width="2"/>
<line y1="664.387" x2="1440" y2="664.387" stroke="#B0B0B0" stroke-opacity="0.08" stroke-width="2"/>
<line y1="332.693" x2="1440" y2="332.693" stroke="#B0B0B0" stroke-opacity="0.08" stroke-width="2"/>
<line y1="830.233" x2="1440" y2="830.233" stroke="#B0B0B0" stroke-opacity="0.08" stroke-width="2"/>
<line y1="83.9238" x2="1440" y2="83.9238" stroke="#B0B0B0" stroke-opacity="0.08" stroke-width="2"/>
<line y1="581.464" x2="1440" y2="581.464" stroke="#B0B0B0" stroke-opacity="0.08" stroke-width="2"/>
<line y1="249.77" x2="1440" y2="249.77" stroke="#B0B0B0" stroke-opacity="0.08" stroke-width="2"/>
<line y1="747.311" x2="1440" y2="747.311" stroke="#B0B0B0" stroke-opacity="0.08" stroke-width="2"/>
<line y1="415.616" x2="1440" y2="415.616" stroke="#B0B0B0" stroke-opacity="0.08" stroke-width="2"/>
<line x1="304.158" y1="2" x2="304.158" y2="855" stroke="#B0B0B0" stroke-opacity="0.08" stroke-width="2"/>
<line x1="1062.05" y1="2" x2="1062.05" y2="855" stroke="#B0B0B0" stroke-opacity="0.08" stroke-width="2"/>
<line x1="152.58" y1="2" x2="152.58" y2="855" stroke="#B0B0B0" stroke-opacity="0.08" stroke-width="2"/>
<line x1="910.475" y1="2" x2="910.475" y2="855" stroke="#B0B0B0" stroke-opacity="0.08" stroke-width="2"/>
<line x1="455.736" y1="2" x2="455.736" y2="855" stroke="#B0B0B0" stroke-opacity="0.08" stroke-width="2"/>
<line x1="1213.63" y1="2" x2="1213.63" y2="855" stroke="#B0B0B0" stroke-opacity="0.08" stroke-width="2"/>
<line x1="607.316" y1="2" x2="607.316" y2="855" stroke="#B0B0B0" stroke-opacity="0.08" stroke-width="2"/>
<line x1="1365.21" y1="2" x2="1365.21" y2="855" stroke="#B0B0B0" stroke-opacity="0.08" stroke-width="2"/>
<line x1="76.791" y1="2" x2="76.791" y2="855" stroke="#B0B0B0" stroke-opacity="0.08" stroke-width="2"/>
<line x1="834.684" y1="2" x2="834.684" y2="855" stroke="#B0B0B0" stroke-opacity="0.08" stroke-width="2"/>
<line x1="379.947" y1="2" x2="379.947" y2="855" stroke="#B0B0B0" stroke-opacity="0.08" stroke-width="2"/>
<line x1="1137.84" y1="2" x2="1137.84" y2="855" stroke="#B0B0B0" stroke-opacity="0.08" stroke-width="2"/>
<line x1="228.367" y1="2" x2="228.367" y2="855" stroke="#B0B0B0" stroke-opacity="0.08" stroke-width="2"/>
<line x1="986.264" y1="2" x2="986.264" y2="855" stroke="#B0B0B0" stroke-opacity="0.08" stroke-width="2"/>
<line x1="531.527" y1="2" x2="531.527" y2="855" stroke="#B0B0B0" stroke-opacity="0.08" stroke-width="2"/>
<line x1="1289.42" y1="2" x2="1289.42" y2="855" stroke="#B0B0B0" stroke-opacity="0.08" stroke-width="2"/>
<line x1="683.105" y1="2" x2="683.105" y2="855" stroke="#B0B0B0" stroke-opacity="0.08" stroke-width="2"/>
</svg>
