<svg width="160" height="44" viewBox="0 0 160 44" fill="none" xmlns="http://www.w3.org/2000/svg">
<path d="M7.00155 27.0947C7.00155 27.9968 7.1707 28.7072 7.509 29.226C7.86985 29.7447 8.33219 30.004 8.89602 30.004C9.45985 30.004 10.1252 29.7109 10.892 29.1245C11.0724 28.9891 11.2077 28.9779 11.2979 29.0906L11.9745 30.004C11.3881 30.5679 10.9258 30.9851 10.5875 31.2557C9.61772 32 8.46751 32.3721 7.13687 32.3721C5.80623 32.3721 4.73496 31.9323 3.92304 31.0528C3.13368 30.1506 2.739 29.147 2.739 28.0419L2.739 19.5845H1.04751L0.87836 18.3328C2.11879 17.9268 3.05474 17.3855 3.68623 16.7089C4.34027 16.0098 4.94921 15.0964 5.51304 13.9687H6.32496C6.55049 13.9687 6.69708 14.0138 6.76474 14.104C6.8324 14.1943 6.86623 14.3521 6.86623 14.5777L7.00155 17.4532H11.2979C11.343 17.6562 11.3656 17.9381 11.3656 18.2989C11.3656 18.6598 11.219 19.0883 10.9258 19.5845H7.03538L7.00155 27.0947ZM26.7024 7.06744L26.7024 18.874C28.4164 17.9719 29.6681 17.4081 30.4575 17.1826C31.2468 16.957 31.9234 16.8443 32.4873 16.8443C33.7954 16.8443 34.8554 17.3179 35.6673 18.2651C36.4792 19.2123 36.8851 20.5881 36.8851 22.3923L36.8851 29.4289C36.8851 29.7898 37.0092 30.0604 37.2573 30.2409C37.5279 30.3987 38.0692 30.4777 38.8811 30.4777L39.2532 32.1015C36.8851 32.0338 35.2388 32 34.3141 32C33.3894 32 32.1715 32.0338 30.6605 32.1015L30.3222 30.4777C31.2468 30.4551 31.8671 30.3649 32.1828 30.207C32.5211 30.0266 32.6903 29.7672 32.6903 29.4289L32.6903 23.4072C32.6903 22.2119 32.4873 21.3323 32.0813 20.7685C31.6979 20.1821 31.01 19.8889 30.0177 19.8889C29.0254 19.8889 27.9203 20.1483 26.7024 20.667V29.4289C26.7024 30.1281 27.4241 30.4777 28.8675 30.4777L29.2396 32.1015C26.8715 32.0338 25.2251 32 24.3005 32C23.3758 32 22.1579 32.0338 20.6468 32.1015L20.3086 30.4777C21.2332 30.4551 21.8534 30.3649 22.1692 30.207C22.5075 30.0266 22.6766 29.7672 22.6766 29.4289L22.6766 11.0594C22.6766 10.2249 22.5413 9.69489 22.2707 9.46936C22 9.24383 21.6843 9.13106 21.3234 9.13106C20.9851 9.13106 20.7032 9.14234 20.4777 9.16489L20.0379 7.87936C22.0903 7.36064 23.9734 6.76298 25.6875 6.08638C26.116 6.08638 26.3866 6.17659 26.4994 6.35702C26.6347 6.51489 26.7024 6.7517 26.7024 7.06744ZM61.3914 24.0162H52.1897C52.1897 25.3243 52.4378 26.5534 52.9339 27.7036C53.2271 28.3802 53.7008 28.9328 54.3548 29.3613C55.0314 29.7898 55.7982 30.004 56.6552 30.004C57.5122 30.004 58.3016 29.8349 59.0233 29.4966C59.7676 29.1357 60.2637 28.8313 60.5118 28.5832C60.7825 28.3126 60.9742 28.2449 61.0869 28.3802L61.6282 29.1245C60.8614 30.0717 59.9029 30.8611 58.7527 31.4926C57.625 32.1015 56.5199 32.406 55.4374 32.406C53.0016 32.406 51.1184 31.7181 49.7878 30.3423C48.4571 28.944 47.7918 27.0721 47.7918 24.7266C47.7918 22.3585 48.5361 20.4528 50.0246 19.0094C51.5131 17.566 53.2159 16.8443 55.1329 16.8443C57.0499 16.8443 58.6174 17.3968 59.8352 18.5019C61.0756 19.607 61.6959 21.276 61.6959 23.5087C61.6959 23.847 61.5944 24.0162 61.3914 24.0162ZM57.8054 21.9864C57.8054 19.934 56.9597 18.9079 55.2682 18.9079C54.4337 18.9079 53.7571 19.2236 53.2384 19.8551C52.7197 20.4866 52.4152 21.197 52.325 21.9864H57.8054Z" fill="#90AAB7"/>
<path d="M78.2786 28.3802C78.2786 28.9215 78.583 29.3838 79.192 29.7672C79.8235 30.1281 80.5452 30.3085 81.3571 30.3085C82.4622 30.3085 83.2854 29.8123 83.8267 28.82C84.3905 27.8051 84.6724 26.4857 84.6724 24.8619C84.6724 23.2381 84.3792 21.9074 83.7928 20.87C83.229 19.8326 82.372 19.3138 81.2218 19.3138C80.0941 19.3138 79.113 19.6183 78.2786 20.2272V28.3802ZM78.0418 17.7915L78.1094 18.7387V18.874C79.3499 17.5209 80.8722 16.8443 82.6765 16.8443C84.4807 16.8443 86.0031 17.5547 87.2435 18.9755C88.4839 20.3738 89.1041 22.1894 89.1041 24.4221C89.1041 26.6549 88.405 28.5494 87.0067 30.1055C85.6309 31.6391 83.9056 32.406 81.8307 32.406C80.455 32.406 79.2709 32.0789 78.2786 31.4249V38.0555C78.2786 38.4164 78.4477 38.6757 78.786 38.8336C79.1243 39.014 79.846 39.1043 80.9511 39.1043L81.3233 40.7281C78.9552 40.6604 77.196 40.6266 76.0458 40.6266C74.9182 40.6266 73.5988 40.6604 72.0877 40.7281L71.7494 39.1043C72.6741 39.0817 73.2943 38.9802 73.6101 38.7998C73.9258 38.6419 74.0837 38.3938 74.0837 38.0555V21.3098C74.0837 20.7685 73.9596 20.3964 73.7116 20.1934C73.4635 19.9679 73.1477 19.8551 72.7643 19.8551C72.4035 19.8551 72.1328 19.8664 71.9524 19.8889L71.4788 18.5019C72.8771 18.1636 74.7716 17.5208 77.1622 16.5736C77.4554 16.5736 77.6358 16.6413 77.7035 16.7766C77.7937 16.8894 77.8613 16.9796 77.9065 17.0472C77.9967 17.2277 78.0418 17.4757 78.0418 17.7915ZM102.625 24.3206C102.625 25.8543 102.974 27.2413 103.673 28.4817C104.395 29.6996 105.41 30.3085 106.718 30.3085C108.026 30.3085 108.962 29.8011 109.526 28.7862C110.112 27.7487 110.406 26.4519 110.406 24.8957C110.406 23.3396 110.056 21.9526 109.357 20.7347C108.68 19.4943 107.665 18.874 106.312 18.874C104.981 18.874 104.034 19.404 103.47 20.464C102.907 21.5015 102.625 22.787 102.625 24.3206ZM106.447 32.406C104.034 32.406 102.061 31.7519 100.527 30.4438C98.9936 29.1132 98.2268 27.2864 98.2268 24.9634C98.2268 22.6404 99.0162 20.7121 100.595 19.1785C102.174 17.6223 104.158 16.8443 106.549 16.8443C108.962 16.8443 110.936 17.5434 112.469 18.9417C114.025 20.3174 114.803 22.1781 114.803 24.5236C114.803 26.8691 114.014 28.7749 112.435 30.2409C110.857 31.6843 108.861 32.406 106.447 32.406ZM128.321 24.3206C128.321 25.8543 128.67 27.2413 129.369 28.4817C130.091 29.6996 131.106 30.3085 132.414 30.3085C133.722 30.3085 134.658 29.8011 135.222 28.7862C135.808 27.7487 136.102 26.4519 136.102 24.8957C136.102 23.3396 135.752 21.9526 135.053 20.7347C134.376 19.4943 133.361 18.874 132.008 18.874C130.678 18.874 129.73 19.404 129.167 20.464C128.603 21.5015 128.321 22.787 128.321 24.3206ZM132.144 32.406C129.73 32.406 127.757 31.7519 126.223 30.4438C124.69 29.1132 123.923 27.2864 123.923 24.9634C123.923 22.6404 124.712 20.7121 126.291 19.1785C127.87 17.6223 129.854 16.8443 132.245 16.8443C134.658 16.8443 136.632 17.5434 138.165 18.9417C139.721 20.3174 140.499 22.1781 140.499 24.5236C140.499 26.8691 139.71 28.7749 138.131 30.2409C136.553 31.6843 134.557 32.406 132.144 32.406ZM156.047 7.06744V29.4289C156.047 29.7898 156.171 30.0604 156.419 30.2409C156.689 30.3987 157.231 30.4777 158.043 30.4777L158.415 32.1015C156.047 32.0338 154.4 32 153.476 32C152.551 32 151.333 32.0338 149.822 32.1015L149.484 30.4777C150.408 30.4551 151.029 30.3649 151.344 30.207C151.683 30.0266 151.852 29.7672 151.852 29.4289V11.0594C151.852 10.2249 151.716 9.69489 151.446 9.46936C151.175 9.24383 150.859 9.13106 150.499 9.13106C150.16 9.13106 149.878 9.14234 149.653 9.16489L149.213 7.87936C151.604 7.27042 153.543 6.67276 155.032 6.08638C155.46 6.08638 155.731 6.17659 155.844 6.35702C155.979 6.51489 156.047 6.7517 156.047 7.06744Z" fill="#283c57"/>
</svg>
