<svg width="16" height="16" viewBox="0 0 16 16" fill="none" xmlns="http://www.w3.org/2000/svg">
<path d="M8.84598 2.44585C9.04601 2.24588 9.31727 2.13354 9.60011 2.13354C9.88296 2.13354 10.1542 2.24588 10.3542 2.44585L15.1542 7.24585C15.3542 7.44588 15.4666 7.71714 15.4666 7.99998C15.4666 8.28283 15.3542 8.55409 15.1542 8.75412L10.3542 13.5541C10.1531 13.7484 9.88363 13.8559 9.60395 13.8535C9.32428 13.8511 9.05674 13.7389 8.85897 13.5411C8.66121 13.3434 8.54903 13.0758 8.5466 12.7961C8.54417 12.5165 8.65168 12.247 8.84598 12.0459L11.7334 9.06665H1.60011C1.31722 9.06665 1.04591 8.95427 0.845867 8.75423C0.645828 8.55419 0.533447 8.28288 0.533447 7.99998C0.533447 7.71709 0.645828 7.44578 0.845867 7.24574C1.04591 7.0457 1.31722 6.93332 1.60011 6.93332H11.7334L8.84598 3.95412C8.64601 3.75409 8.53368 3.48283 8.53368 3.19998C8.53368 2.91714 8.64601 2.64588 8.84598 2.44585Z" fill="#5433EB"/>
</svg>
