<svg width="21" height="22" viewBox="0 0 21 22" fill="none" xmlns="http://www.w3.org/2000/svg">
<path d="M9.00056 12.8125L20.0006 1.8125M9.00056 12.8125L12.5006 19.8125C12.5444 19.9082 12.6149 19.9894 12.7035 20.0463C12.7921 20.1031 12.8952 20.1334 13.0006 20.1334C13.1059 20.1334 13.209 20.1031 13.2976 20.0463C13.3862 19.9894 13.4567 19.9082 13.5006 19.8125L20.0006 1.8125M9.00056 12.8125L2.00056 9.3125C1.90482 9.26863 1.82369 9.19819 1.7668 9.10955C1.70992 9.02092 1.67969 8.91782 1.67969 8.8125C1.67969 8.70718 1.70992 8.60408 1.7668 8.51545C1.82369 8.42681 1.90482 8.35637 2.00056 8.3125L20.0006 1.8125" stroke="#282828" stroke-width="2" stroke-linecap="round" stroke-linejoin="round"/>
</svg>
