<svg width="32" height="33" viewBox="0 0 32 33" fill="none" xmlns="http://www.w3.org/2000/svg">
<path fill-rule="evenodd" clip-rule="evenodd" d="M16 32.56C24.8366 32.56 32 25.3966 32 16.56C32 7.72344 24.8366 0.559998 16 0.559998C7.16344 0.559998 0 7.72344 0 16.56C0 25.3966 7.16344 32.56 16 32.56ZM13.5097 11.1726L21.6902 16.1719C21.7567 16.2125 21.8116 16.2695 21.8497 16.3374C21.8877 16.4053 21.9077 16.4819 21.9077 16.5598C21.9077 16.6376 21.8877 16.7142 21.8497 16.7821C21.8116 16.85 21.7567 16.907 21.6902 16.9476L13.5097 21.947C13.4408 21.9891 13.362 22.0121 13.2812 22.0136C13.2005 22.0151 13.1208 21.9951 13.0504 21.9556C12.9799 21.9161 12.9213 21.8585 12.8805 21.7888C12.8397 21.7192 12.8182 21.6399 12.8182 21.5591V11.5604C12.8182 11.4797 12.8397 11.4004 12.8805 11.3307C12.9213 11.261 12.9799 11.2035 13.0504 11.164C13.1208 11.1245 13.2005 11.1044 13.2812 11.1059C13.362 11.1075 13.4408 11.1305 13.5097 11.1726Z" fill="white"/>
</svg>
