<svg width="80" height="80" viewBox="0 0 80 80" fill="none" xmlns="http://www.w3.org/2000/svg">
<g id="ion:logo-sass" clip-path="url(#clip0_272_7272)">
<path id="Vector" d="M79.967 51.2609C79.7374 49.3984 78.7936 47.7828 77.1545 46.4531C77.1342 46.4283 77.1117 46.4053 77.0873 46.3843L77.0045 46.325L76.978 46.3062L76.1077 45.6812L76.078 45.6593L75.967 45.5812C75.9263 45.5575 75.8828 45.5391 75.8373 45.5265C73.0842 43.8874 68.5264 42.739 61.553 45.1999C59.8889 42.3999 59.6999 40.1562 60.8139 36.7187C61.0124 36.1203 60.828 35.7249 60.2342 35.4687C59.0405 34.9609 57.4061 35.2203 56.2467 35.5265C55.7061 35.6671 55.3811 35.9734 55.278 36.4374C54.5436 39.8749 52.4092 43.0156 50.3452 46.0468L50.2233 46.2249C48.9514 43.5281 49.2155 41.439 50.1014 38.8218C50.278 38.2999 50.1389 37.9531 49.6498 37.6937C48.2842 36.989 46.2358 37.4734 45.4202 37.714C44.3858 38.0156 43.2764 40.8109 42.0373 44.1578C41.7248 44.9999 41.4561 45.7203 41.2952 46.0562C40.9123 46.8374 40.5467 47.7281 40.1592 48.6734C39.2842 50.8125 38.2983 53.2203 36.8889 54.7328C36.3764 53.5999 37.1827 51.814 37.9655 50.0812C38.892 48.0328 39.767 46.0968 38.7592 44.8609C38.5998 44.6655 38.4021 44.5048 38.1783 44.3887C37.9544 44.2726 37.7092 44.2036 37.4577 44.1859C37.1295 44.1609 36.8001 44.2145 36.4967 44.3421C36.6014 43.4593 36.6061 42.7624 36.3483 41.9203C35.9795 40.7187 35.0217 40.0453 33.703 40.0812C30.6998 40.1687 28.1592 42.4062 26.5545 44.2687C25.4858 45.5187 23.117 46.4718 21.0373 47.3078C20.2155 47.6562 19.4342 47.9687 18.7827 48.2812C17.7436 47.4031 16.4233 46.5171 15.0327 45.5812C11.1264 42.9593 6.69985 39.9859 6.54672 35.9546C6.32797 29.9999 13.1092 25.7765 19.028 22.7624C23.5139 20.4812 27.4139 18.9687 30.9514 18.1421C35.9202 16.9812 40.117 17.2156 43.4233 18.8359C45.2327 19.7218 46.0795 21.6484 45.542 23.6296C44.1358 28.7781 38.3092 32.3062 33.3264 33.8937C30.3248 34.8499 27.7702 35.2499 25.5139 35.1187C22.6858 34.9546 20.3764 33.5359 19.3889 32.9312C19.2307 32.8232 19.0634 32.729 18.8889 32.6499L18.8436 32.639C18.7542 32.6168 18.6604 32.6196 18.5724 32.6471C18.4845 32.6747 18.4059 32.7259 18.3452 32.7953C18.142 33.0374 18.2139 33.4203 18.2873 33.614C19.2483 36.1249 21.2327 37.7109 24.1842 38.3281C25.1502 38.5215 26.1335 38.6152 27.1186 38.6078C34.0264 38.6078 42.8405 34.6249 46.078 31.3453C48.2858 29.1109 49.8936 26.814 50.5592 22.8531C51.2545 18.7046 48.442 15.8218 45.5764 14.4937C38.6123 11.2796 30.703 12.5499 25.2936 14.1812C18.9655 16.089 12.4186 19.5578 7.33422 23.7015C1.06547 28.8062 -1.20015 33.5453 0.596722 37.8031C2.44203 42.1671 6.94203 44.8968 11.2936 47.5374C12.6998 48.389 14.0373 49.1999 15.242 50.0374C14.8795 50.214 14.5092 50.3937 14.1327 50.5734C10.4795 52.3437 6.33578 54.3359 4.03735 57.6281C2.3686 60.0265 2.0561 62.414 3.10922 64.7249C3.67172 65.9546 4.67172 66.789 6.06079 67.2046C6.78337 67.4094 7.53169 67.5088 8.28266 67.4999C10.9873 67.4999 13.9639 66.4062 15.5842 65.3953C18.4467 63.5984 20.3014 61.1859 21.0983 58.2249C21.8077 55.5906 21.6373 52.9734 20.6061 50.6374L24.1139 48.8687C22.4217 54.4937 23.7186 57.8531 25.1436 59.7062C25.6686 60.389 26.6155 60.7999 27.6733 60.8187C28.7311 60.8374 29.7045 60.439 30.2545 59.7609C31.2952 58.4718 32.0639 56.964 32.7717 55.4562C32.7342 56.4406 32.7811 57.4374 33.117 58.2828C33.4186 59.0437 33.9155 59.5484 34.5561 59.7421C35.2373 59.9499 36.0358 59.7749 36.8045 59.2499C40.2686 56.8796 42.6373 51.1906 44.5405 46.6171C44.8108 45.9671 45.0702 45.3421 45.3217 44.7578C45.7926 46.4428 46.4476 48.0708 47.2748 49.6124C47.4592 49.9468 47.4436 50.0937 47.1936 50.3687C46.817 50.7812 46.292 51.2796 45.7358 51.8078C44.0514 53.4062 41.9545 55.4015 41.6733 57.1562C41.5639 57.8593 42.0483 58.4999 42.7999 58.6453C45.0608 59.0953 47.7842 58.4374 50.0873 56.8874C52.1811 55.4812 52.9686 53.5203 52.4311 51.0765C51.9108 48.7234 53.0983 45.8015 55.9608 42.3859C56.4295 44.3437 57.0545 45.9265 57.917 47.3124L57.8936 47.3312C55.8092 49.1515 52.953 51.6437 53.3967 54.6671C53.434 54.9547 53.5307 55.2313 53.6808 55.4793C53.8309 55.7274 54.0311 55.9414 54.2686 56.1078C54.5224 56.2791 54.8088 56.3961 55.11 56.4515C55.4111 56.5069 55.7205 56.4995 56.0186 56.4296C58.7483 55.8562 60.803 54.7015 62.2967 52.9031C63.7905 51.1046 63.2452 49.1109 62.742 47.564C66.6483 46.5046 70.1264 46.5312 73.3827 47.6421C75.2108 48.2671 76.5217 49.2937 77.278 50.7109C78.2295 52.4937 77.7155 54.139 75.8264 55.3437C75.2467 55.714 74.967 55.9406 74.9499 56.2265C74.946 56.2929 74.9582 56.3592 74.9854 56.4198C75.0126 56.4805 75.054 56.5337 75.1061 56.5749C75.3249 56.7546 75.9998 57.0671 77.5264 56.1062C78.9327 55.2234 79.7577 54.0218 79.9686 52.5124C80.011 52.0963 80.0105 51.6769 79.967 51.2609ZM17.5092 55.1765L17.4936 55.3765C17.2498 57.664 16.0873 59.6578 14.0327 61.314C12.742 62.3546 11.3405 62.9937 10.0873 63.1156C9.21235 63.1999 8.57641 63.0812 8.19829 62.7609C7.91547 62.5218 7.76391 62.164 7.72954 61.6671C7.47329 57.6859 13.717 53.7296 17.2311 52.4281C17.4819 53.3213 17.576 54.2512 17.5092 55.1765ZM33.5014 43.9484C32.9233 47.2437 31.2373 53.464 28.5873 55.8781C28.4608 55.9937 28.3545 56.0343 28.3061 56.0234C28.2577 56.0124 28.2202 55.9546 28.1811 55.8671C27.2967 53.8171 27.6233 50.3546 28.9623 47.6343C29.992 45.5374 31.4623 44.1484 33.1061 43.7281C33.1743 43.7093 33.2447 43.6993 33.3155 43.6984C33.3708 43.6945 33.4259 43.7094 33.4717 43.7406C33.4911 43.7712 33.5037 43.8055 33.5088 43.8413C33.5139 43.8771 33.5114 43.9136 33.5014 43.9484ZM46.5467 55.9609C46.0483 56.4812 45.3655 56.4109 45.5264 56.2203L48.0639 53.5265C47.8592 54.4531 47.2545 55.2203 46.5467 55.9609ZM57.0733 53.6312C56.832 53.7501 56.5709 53.8237 56.303 53.8484C56.2311 52.4312 57.6045 50.8359 58.9592 49.7718C59.3233 51.25 58.578 52.8124 57.0733 53.6312Z" fill="#8592A3"/>
</g>
<defs>
<clipPath id="clip0_272_7272">
<rect width="80" height="80" fill="white"/>
</clipPath>
</defs>
</svg>
