<svg width="13" height="13" viewBox="0 0 13 13" fill="none" xmlns="http://www.w3.org/2000/svg">
<mask id="mask0_676_28704" style="mask-type:luminance" maskUnits="userSpaceOnUse" x="1" y="1" width="11" height="6">
<path d="M5.76953 4.75C5.76953 4.888 5.65753 5 5.51953 5C4.55453 5 3.76953 5.785 3.76953 6.75C3.76953 6.888 3.65753 7 3.51953 7C3.38153 7 3.26953 6.888 3.26953 6.75C3.26953 5.785 2.48453 5 1.51953 5C1.38153 5 1.26953 4.888 1.26953 4.75C1.26953 4.612 1.38153 4.5 1.51953 4.5C2.48453 4.5 3.26953 3.715 3.26953 2.75C3.26953 2.612 3.38153 2.5 3.51953 2.5C3.65753 2.5 3.76953 2.612 3.76953 2.75C3.76953 3.715 4.55453 4.5 5.51953 4.5C5.65753 4.5 5.76953 4.612 5.76953 4.75ZM11.5195 3C10.5545 3 9.76953 2.215 9.76953 1.25C9.76953 1.112 9.65753 1 9.51953 1C9.38153 1 9.26953 1.112 9.26953 1.25C9.26953 2.215 8.48453 3 7.51953 3C7.38153 3 7.26953 3.112 7.26953 3.25C7.26953 3.388 7.38153 3.5 7.51953 3.5C8.48453 3.5 9.26953 4.285 9.26953 5.25C9.26953 5.388 9.38153 5.5 9.51953 5.5C9.65753 5.5 9.76953 5.388 9.76953 5.25C9.76953 4.285 10.5545 3.5 11.5195 3.5C11.6575 3.5 11.7695 3.388 11.7695 3.25C11.7695 3.112 11.6575 3 11.5195 3Z" fill="white"/>
</mask>
<g mask="url(#mask0_676_28704)">
<path d="M12.7695 0.5H0.769531V12.5H12.7695V0.5Z" fill="white"/>
</g>
<mask id="mask1_676_28704" style="mask-type:luminance" maskUnits="userSpaceOnUse" x="4" y="5" width="7" height="7">
<path d="M10.5195 8.5C9.00303 8.5 7.76953 7.2665 7.76953 5.75C7.76953 5.612 7.65753 5.5 7.51953 5.5C7.38153 5.5 7.26953 5.612 7.26953 5.75C7.26953 7.2665 6.03603 8.5 4.51953 8.5C4.38153 8.5 4.26953 8.612 4.26953 8.75C4.26953 8.888 4.38153 9 4.51953 9C6.03603 9 7.26953 10.2335 7.26953 11.75C7.26953 11.888 7.38153 12 7.51953 12C7.65753 12 7.76953 11.888 7.76953 11.75C7.76953 10.2335 9.00303 9 10.5195 9C10.6575 9 10.7695 8.888 10.7695 8.75C10.7695 8.612 10.6575 8.5 10.5195 8.5Z" fill="white"/>
</mask>
<g mask="url(#mask1_676_28704)">
<path d="M12.7695 0.5H0.769531V12.5H12.7695V0.5Z" fill="white"/>
</g>
</svg>
